<svg xmlns="http://www.w3.org/2000/svg" width="2560" height="1707" viewBox="0 0 2560 1707">
  <defs>
    <style>
      .cls-1 {
        fill: #fff;
      }

      .cls-1, .cls-2 {
        fill-rule: evenodd;
      }
    </style>
  </defs>
  <path class="cls-1" d="M0,0H2560V1707H0V0ZM470.136,1315.46c-4.344-6.34-11.866-.01-15.4-2.83-12.958-10.3-31.991-10.25-41.886-25.99a52.76,52.76,0,0,0-17.112-16.28c-8.247-5.09-10.455-14.28-9.135-23.35A688.451,688.451,0,0,0,393,1176.08c3.08-74.47,10.684-148.54,25.339-221.7,2.167-10.818,5.4-21.566,11.195-31.719,3.659-6.411,4.613-15.679,2.514-23.966-1.287-5.083.594-9.745,1.694-14.463,2.568-11.015,6.078-21.848,8-32.963,1.769-10.244,3.011-21.03-7.757-28.182-2.356-1.565-2.688-3.879-2.144-6.646,2.5-12.7,23.689-25.165,36.436-25.879,19.992-1.119,33.653,13.064,51.12,17.394a7.459,7.459,0,0,1,4.65,3.867c6.253,17.465,14.113,34.672,8.668,54.1-9.847,35.13-4.6,70.368-2.867,106,1.25,25.707,3.859,52.708-5.077,78.388-1.494,4.3-.21,9.56-0.21,15.81,22.027-12.9,36.924-30.92,53.339-46.87a485.747,485.747,0,0,1,107.835-79.282,25.739,25.739,0,0,1,14.549-3.229c12.087,0.961,24.213,1.467,36.281,2.6,15.617,1.468,18.01,7.652,20,23.242,3.756,29.359,1.533,58.638.206,87.678-1.3,28.44-1.186,56.77-1.132,85.16,0.007,3.85-2.347,9.52,3.245,10.79,4.667,1.07,6.962-4.01,9.077-7.44,24.6-39.92,46.563-81.29,68.162-122.88,8.867-17.077,16.926-34.839,27.974-50.431,9.652-13.623,20.785-25.754,23.09-43.194,0.338-2.554,4-3.93,6.913-4.922,7.193-2.454,11.815-8.375,14.514-14.635,5.6-12.993,16.1-22.79,22.629-34.221,11.28-19.738,29.659-28.27,46.367-39.654,18.194-12.4,39.3-16.623,61.183-14.715,5.92,0.516,13.81-1.285,17.08,7.351,1.65,4.341,4.71,1.262,7.18.057,13-6.346,32.39-3.815,42.25,5.344,3.21,2.99,4.76,7.463,2.13,10.1-12.38,12.425-13.17,29.644-18.47,44.677-15.28,43.417-29.37,87.267-46.37,132.786,22.69-11.74,43.97-13.58,66.25-7.58,14.54,3.92,20.9,10.83,20.2,26.8a256.633,256.633,0,0,1-3.81,36.1c-4.34,23.16-4.65,46.44-4.63,69.86,0.01,8.58,3.6,8.9,9.79,6.82,8.53-2.87,15.21-8.62,22.2-14.04,37.8-29.37,70.87-63.68,103.38-98.59,4.34-4.65,7.55-10.73,6.37-15.82-2.54-10.93,7.61-16.82,8.23-26.2,0.23-3.535,3.3-2.933,6.64-2.761,15.19,0.781,28.8,8.984,44.31,8.631,5.82-.133,8.62,4.33,4.04,10.34-29.38,38.54-37.14,84.89-46.62,130.53a92.864,92.864,0,0,0-.78,33.55c13.32-11.71,23.03-24.49,33.15-36.77,41.32-50.16,81.6-101.19,125.33-149.329,2.91-3.21,5.28-6.482,5.76-10.889,3.5-31.865,15.86-60.537,31.59-88.021a37.156,37.156,0,0,0,3.31-8.091c3.89-13.356,17.23-18.9,30.5-17.284,10.26,1.247,22.62,6.243,31.84-6.168,6.74-9.078,16.59-5.7,26.6-3.752,17.95,3.486,32.38,14.831,49.61,19.512,5.11,1.387,11.43,2.4,11.33,10.107-0.1,7.828.25,14.525-10.04,18.165-16.42,5.814-35.23,14.329-42.96,27.847-8.86,15.494-24.27,25.18-30.72,41.622-1.33,3.406-4.06,6.1-3.43,10.465,0.84,5.862-.49,9.875-7.99,11.733-6.23,1.545-6.25,10.183-8.45,15.6-0.77,1.91,7.07,4.51,11.31,5.76,21.66,6.38,44.27,8.76,65.78,15.94,16.05,5.36,31.77,12.07,44.28,22.96,19.82,17.27,24,35.75,1.81,61.31-13.58,15.63-31.15,26.41-47.06,39.18-20.59,16.53-40.78,33.74-62.67,48.35-12.83,8.56-25.16,17.96-37.89,26.64-9.18,6.26-17.69,12.35-28.37,15.91-5.86,1.96-9.03.71-13.27-2.87-12.68-10.69-17.41-23.93-15.04-40.21,5.64-38.73,27-68.56,53.64-95.46,1.76-1.78,3.74-3.36,5.35-5.27,5.16-6.14,6.93-11.1-3.32-14.3-18.29-5.72-34.57-14.48-43.44-32.91-3.15-6.53-6.65-3.19-9.14.44-20.83,30.38-46.04,57.32-69.5,85.49-18.02,21.64-35.16,44.52-57.12,63.11-9.4,7.96-17.1,17.97-28.48,23.68-1,.51-2.28,1.29-2.59,2.23-2.98,8.94-3.11,9.23-11.01,4.99-18.02-9.69-31.06-22.74-35.72-44.15-5.21-23.9-4.34-47.87-5.03-71.88-0.09-3.12,2.88-7.15-1.48-8.84-3.37-1.3-6.22,1.91-8.53,4.11-11.1,10.63-21.64,21.87-33.07,32.13-14.49,12.99-29.13,25.13-46.93,34.6-36,19.15-62.02-7.81-66.34-36.64-3.98-26.56.38-52.65,1.85-78.92,0.35-6.27,1.08-12.51,1.43-18.78,0.25-4.58,1.39-10.67-2.87-12.77-4.35-2.15-7.99,2.87-11.53,5.78-17.65,14.56-30.44,33.16-43.42,51.63q-22.335,31.755-44.7,63.48c-4.729,6.68-12.33,12.71-19.14,11.66-6.2-.95-10.183-9.33-12.714-17.02-3.4-10.34,2.153-20.86-2.466-30.95-1.034-2.26,2.222-6.08,4.933-6.56,10.358-1.82,11.664-10.54,15.5-17.93,7.318-14.1,15.75-27.62,23.564-41.47,15.081-26.74,24.371-55.958,35.491-84.355,11.87-30.291,22.35-61.119,30-92.8,1.57-6.5,2.44-13.176,3.86-19.719,0.69-3.172.69-6.964-2.35-7.606-8.09-1.713-8.18-5.733-5.12-12.686-5.32,2.565-10.66,5.1-15.97,7.7-13.15,6.441-27.87,7.683-40.829,16.389-16.6,11.16-28.769,25.264-38.18,41.861-13.031,22.979-28.775,44.2-39.051,69.077-11.473,27.77-21.651,56.263-35.119,83.033-9.467,18.82-17.459,38.43-27.126,57.19-5.071,9.83-10.518,21.06-13.83,32.7-5.553,19.52-17.742,36.25-28.667,53.31-7.077,11.06-14.757,21.74-21.939,32.66-9.061,13.77-35.343,17.24-48.664,11.05-4.908-2.28-9.785-4.63-14.662-6.97-30.121-14.5-34.5-44.23-40.911-71.8-8.069-34.71-9.237-70.29-8.536-105.91,0.2-10.36-1.275-20.75-1.765-31.13-0.187-3.95-.551-7.98-4.309-9.83-4.674-2.29-4.747,3.38-7.211,5.02-17.176,11.46-31.746,27.09-42.613,43.14-18.517,27.35-42.584,50.58-57.6,80.7-6.615,13.26-15.966,26.02-23.331,39.1-9.282,16.5-16.446,34.46-24.8,51.65-7.057,14.53-7.891,31.39-21.617,43.87-4.831,4.4-4.555,18.24-9.048,27.46a59.031,59.031,0,0,1-8.722,13.14C475.082,1317.45,472.6,1317.77,470.136,1315.46ZM2088.21,326.127c11.76-2.833,11.08,4.913,10.09,13.217,3.66-1.346,6.63-2.437,9.6-3.527,2.92-.353,4.12-2.644,5.44-4.808,5.38-4.645,10.6-8.666,18.74-7.786,6.96,0.752,7.07-.192,10.08-16.992,5.57,11.616,16.35,7.527,24.59,10.031,18.72,5.685,32.75,18.05,47.88,28.893,5.35,3.834,10.36,6.619,16.89,7.021,9.05,0.559,14.77,6.4,20.22,12.92,3.3,3.934,2.62,7.677.88,11.532-8.1,18.046-24.36,26.853-41.54,32.171-15.84,4.9-26.82,15.833-39.71,24.528-14.88,10.039-23.89,26.915-40.76,34.63-2.14.975-5.41,3.384-5.25,4.806,1.21,10.871-7.95,14.772-13.58,20.767-9.18,9.773-18.21,19.633-27.02,29.717a178.9,178.9,0,0,1-26.72,24.392c-8.95,6.742-8.34,18-15.36,25.255-1.82,1.882-.09,4.5,2.93,5.521,4.36,1.477,8.54,3.4,13.32,3.4,20.26,0.021,37.58,8.02,53.23,20.169,21.92,17.025,46.85,30.74,61.95,55.379,11.13,18.16,8.1,44.688-12.06,56.76-16.22,9.711-29.51,24.363-44.8,35.324-18.1,12.979-36.09,26.359-54.72,38.735-14.44,9.589-30.57,15.164-45.97,22.455a19.438,19.438,0,0,1-8.46,2c-20.63-.555-36.84,12.924-55.89,17.555-8.7,2.116-17.9,4.251-25.67,9.692-1.47,1.03-5.2,1.351-6.04.389-12.46-14.311-24.52-.443-36.49.666-35.74,3.308-66.45-5.162-88.82-34.873-10.65-14.139-4.49-29.221-.95-43.947,0.35-1.473,2.73-3.5,2.4-3.948-11.79-15.856,4.83-13.331,10.97-15.679,6.29-2.406,10.46-6.743,14.54-11.1,19.29-20.573,45.16-29.514,69.88-40.619,28.97-13.015,57.74-26.46,86.73-39.428,8.38-3.748,6.57-7.957,2.03-13.379-7.36-8.8-15.98-16.056-22.22-26.431-14.62-24.318-12.72-51.442-17.02-77.459-5.27-31.877,5.61-60.326,20.18-88.088,4.22-8.05,7.53-18.06,13.77-23.118,12.67-10.277,22.94-24.652,40.25-28.515,6.15-1.372,12.02-3.313,16.98-7.448,15.59-13,32.77-24.4,40.55-44.709,1.64-4.291,6.5-7.352,9.87-10.981A9.563,9.563,0,0,1,2088.21,326.127ZM410.288,450.2c10.1-12.62,13.052-28.546,19.533-42.828,17.513-38.592,33.991-77.64,52.9-115.615,5.831-11.714,12.314-23.714,12.763-37.322,0.119-3.582,1.134-4.044,3.953-4.464,11.072-1.652,16.98-9.126,20.82-18.852,1.95-4.94,4.789-7.258,10.7-5.343,4.661,1.511,10.23,2.034,14.272,3.9,14.631,6.753,30.418,6.808,45.619,8.736,20.683,2.623,29.828,20.094,22.761,39.01-11.677,31.257-17.845,63.848-25.993,95.972-5.049,19.9-11.7,39.278-18.583,58.625-5.031,14.131-8.378,28.792-19.388,39.962-1.409,1.43-3.137,3.918-2.788,5.486,2.409,10.825-4.472,18.453-7.953,27.543-9.661,25.229-20.97,49.713-31.206,74.653-5.4,13.163-12.126,26.137-12.912,41.274-0.519,10-9.308,17.471-13.531,26.56-2.8,6.016-7.229,11.287-7.2,18.4,0,1.166.029,3.062-.6,3.393-17.16,9.018-11.1,28.668-19.068,42-2.829,4.732-7.1,11.449-6.859,15.407,1.139,18.574-20.376,29.184-15.8,48.4,0.5,2.076-1.044,4.888-2.2,7.063-5.307,10-7.324,20.509-9.253,31.756-2.171,12.659-9.367,24.725-12.722,37.728-5.049,19.568-8.528,39.461-16.07,58.558-2.63,6.659-2.7,17-1.347,25.724a24.278,24.278,0,0,1,.479,6.251c-1.848,16.72-28.688,36.282-45.31,38.807-23.6,3.585-37.8-7.406-50.677-23.909-5.411-6.933-11.36-13.45-16.676-20.451-6.649-8.755-14.836-16.71-6.361-29.718,2.707-4.156-.748-12.092-0.778-18.3-0.224-45.751,9.369-89.861,22.617-133.34a12.881,12.881,0,0,1,2.336-7.658C308.407,710.391,321.5,673.4,336.316,636.9c11.126-27.411,22.13-55.1,31.575-83.245,2.376-7.08,8.342-12.551,8.5-20.45-1.981-5.661,1.012-9.387,4.958-12.743,5.751-13.907,13.755-26.97,15.815-42.258C401.071,468.649,407.453,460.257,410.288,450.2ZM1295.78,679.064c13.03-10.54,18.26-24.046,25.52-36.1,26.74-44.4,48.98-91.237,74.05-136.522a638.926,638.926,0,0,1,54.66-82.575c14.65-18.852,28.43-38.379,42.87-57.4,7.08-9.339,17.72-12.621,28.55-11.653,10.46,0.936,10.02,9.97,7.68,17.373-4.8,15.152-14.17,28.1-21.49,42.051-13.13,25.038-31.05,47.722-40.22,74.56-9.92,29.079-17.09,59.457-31.06,86.658-8.33,16.224-10.99,34.5-21.48,49.591-11.21,16.127-18.63,34.464-28.17,51.574-12.49,22.409-25.27,44.022-43.37,62.369-14.68,14.875-31.73,26.577-51.86,30.7-7.32,1.5-18.69.523-26.15-5.551-20.87-16.975-36.11-36.456-41.45-64.849-8.65-46.03-10.46-92.108-10.01-138.571,0.03-2.8-1.03-5.616-2.23-11.717-5.71,12.214-13.59,19.023-17.2,30.639-5.88,18.94-3.66,41.791-22.52,55.613-4.15,3.038-3.05,7.335-.33,9.9,5.59,5.28,4.46,11.414,3.11,17.343-7.38,32.514-18.52,63.528-38.09,90.943-9.09,12.73-17.05,14.158-30.3,5.367-33.14-21.992-52.17-51.4-52.23-92.711-0.02-13.162-4.02-27.8-3.87-40.171,0.21-16.945,1.29-34.606,1.96-51.856,1.47-37.618.5-75.326,1.71-112.959,0.63-19.678-.66-39.3.01-58.868,0.29-8.585-10.03-11.442-7.25-21.155,1.66-5.8,3.51-7.489,8.4-10.048,22.9-11.965,35.99,3.83,50.39,16.567a29.257,29.257,0,0,0,6.11,4.3c23.13,11.553,29.55,32.822,27.65,55.438-2.99,35.348,5.3,71.206-5.23,106.089,7.97,11.318-9.4,23.245,1.44,35.082,11.96-11.924,17.64-27.845,26.59-41.6,5.89-9.075,11.37-18.461,17.77-27.16,11.06-15.008,21.77-29.709,24.38-49.234,1.44-10.841,9.52-15.386,21.09-19.231,16.33-5.427,31.35-5.161,47.49-2.906,19,2.654,27.74,12.805,23.02,31.464-2.08,8.241-1.21,16.087-.15,23.386,4.42,30.3,2.77,60.86,1.13,90.869-0.83,15.156-1.15,31.175-3.86,46.719C1290.82,652.426,1294.48,665.027,1295.78,679.064Zm459.66-120.406c-18.9,23.193-37.35,46.778-56.85,69.456-15.73,18.287-32.73,35.47-49.15,53.162-11.5,12.392-23.51,24.367-34.27,37.369-8.46,10.212-20.14,14.347-31.31,19.491-7.13,3.286-13.91.692-19.64-4.569-9.07-8.336-15.9-18.417-22.29-28.8-4.03-6.552-1.12-13.045,1.17-19.375,15.95-44.117,38.45-85.314,57.19-128.19a76.866,76.866,0,0,0,6.35-25.55c0.39-5.428.37-9.59-8.14-7.46-10.31,2.584-21.4,4.394-31.87,3.451-12.13-1.091-23.06-6.359-30.06-18.06-15.12-25.312-20.14-51.137-7.65-79.124,3.38-7.581,4.87-16,7.26-24.027,2.29-7.661,7.1-14.93,14.26-16.44,10.79-2.275,15.98-9.434,20.6-17.514,2.23-3.89,4.41-5.684,7.25-2.426,8.43,9.652,20.06,7.843,30.67,9.205,16.65,2.139,31.56,16.409,32.6,31.651,0.36,5.171-1,9.931-5.06,12.032-22.45,11.622-32.85,34.1-47.76,52.44-3.07,3.786-10.44,7.93-7.02,13.383,2.67,4.264,10.1,1.545,15.08,1.169,10.37-.785,20.63-4.785,30.91-4.71,14.58,0.105,29.62-.617,43.5,5.788,12.18,5.625,14.22,14.061,8.11,26.173-17.67,35.013-34.85,70.271-52.04,105.517-2.31,4.715-7.32,8.061-7.74,15.659,13.92-7.408,22.3-19.023,31.11-29.357,26.85-31.459,52.03-64.284,80.58-94.352,14.37-15.128,28.2-30.736,44.08-44.286,11.84-10.1,22.56-20.975,29.42-35.173,9.41-19.486,28.14-20.645,44.14-16.563,28.88,7.366,37.72,6.226,19.75,40.259-21.06,39.9-43.49,79.639-55.96,123.839-6.4,22.688-11.76,46.158-20.73,67.529-6.08,14.513-5.88,31.121-16.52,44.47-6.31,7.927-4.95,20.718-9.9,30.662-4.16,8.33-6.91,9.19-12.91,1.509-19.72-25.248-20.54-54-16.43-83.73,3.68-26.627,12.28-51.928,21.49-77.034,1.78-2.825,1.37-5.91.85-8.933A16.036,16.036,0,0,0,1755.44,558.658ZM604.223,482.8c38.039-35.868,81.257-65.6,119.849-100.749,26.914-24.51,54.041-49.073,75.61-78.755,3.215-4.425,6.15-4.632,11.08-5.218,18.8-2.235,36.761,5.79,55.8,2.792,13.864-2.184,21.527,10.563,30.3,19.037,3.784,3.655-.724,5.3-3.064,5.737-35.493,6.6-55.341,36.671-80.233,57.344-26.034,21.622-50.819,45.946-75.06,70.258-19.564,19.62-41.878,36.469-62.28,55.3-10.39,9.588-17.753,23.042-29.171,30.793-16.4,11.138-27.3,26.822-40.823,40.311-7.982,7.965-12.582,18.184-20.247,26.4-4.589,4.92,1.506,12.052,4.588,16.73,23.416,35.533,39.465,74.87,58.819,112.482,11.51,22.368,28.126,41.476,39.9,63.477,13.206,24.684,31.1,47.042,38.257,74.854,1.364,5.3,11.262,8.841,6.672,14.216-3.692,4.322-10.574-2.226-16.194-3.272-24.075-4.477-36.517-23.026-46.751-41.953C636.9,779.032,603.871,714.755,570.19,650.828c-6.38-12.111-13.2-23.778-25.224-31.806-8.269-5.522-9.929-16.211-14.284-24.572-2.014-3.865-2.585-9.161-5.255-13.293-1.4-2.163-3.123-4.624-.194-6.514,15.949-10.29,23.63-27.358,33.7-42.205,4.4-6.479,11.317-3.306,15.449-8.07,3.148-3.629,8.887-4.947,9.621-10.805l-0.056.089c6.759-4.678,11.152-11.375,15.479-18.128C601.29,491.383,600.775,486.347,604.223,482.8ZM1308.93,962.289c-17.32.255-20.2-4.863-16.87-18.695,5.19-21.534,10.35-43.27,12.61-65.221,1.05-10.186,7.85-15.235,11.5-22.841,7.22-15.052,14.47-30.25,23.48-44.24,9.17-14.217,19.12-27.895,32.02-39.62,7.89-7.169,12.02-18.711,16.99-28.708,1.58-3.167,1.68-6.149,6.24-5.974,29.86,1.146,59.97,1.195,84.32,22.757,9.95,8.807,10.12,14.766-1.79,20.645-26.26,12.96-41.27,36.5-58.37,58.391-14.3,18.3-27.35,37.533-46.9,51.554-19.47,13.971-32.05,34.456-44.68,54.644C1322.56,952.839,1315.24,959.425,1308.93,962.289Zm650.95-717.117c-2.09,14.123-3.79,23.513-16.63,29.639-15.91,7.592-29.67,19.68-44.36,29.829-1.72,1.191-3.27,2.85-5.18,3.527-7.51,2.672-15.24,10.767-23.03,3.68-7.07-6.428,2.35-12.289,4.17-18.276,4.33-14.34,10.5-28.118,15.27-42.341,6.61-19.688,21.72-28.3,40.48-32.917,7.68-1.891,9.67,5.644,13.78,8.667C1951.23,232.016,1959.98,237.267,1959.88,245.172ZM410.288,450.2c-2.1,10.4-4.733,20.548-13.127,28-3.695-7.381-11.615,3.682-15.521-4.835,3.76-1.723,11.775-1.14,8.993-9.519-0.184-.555,1.974-2.524,2.082-2.45,14.422,9.993,11-7.152,16.414-10.736A5.909,5.909,0,0,1,410.288,450.2Zm-28.942,70.254c-2.412,3.953-.974,9.4-4.958,12.743-10.614.513-6.621-7.424-7.319-12.648l0.021-.03A19.854,19.854,0,0,0,381.346,520.457ZM254.833,760.12c2.306,7.1,13.347-3.407,14,6.737,0.208,3.22-1.285,3.3-3.506,3.567C258.009,771.315,257.044,765.194,254.833,760.12Zm-139.07-63c0.344,2.565,2.987,5.941-1.915,6.123-4.852.181-4.555-3.848-4.627-7.042-0.049-2.176-.906-5.471,3.382-4.662C115.986,692.175,120.38,692.343,115.763,697.119ZM2133.94,313.02c-3.13-.109-5.44-1.7-5.16-3.46,0.43-2.7,3.73-2.953,6.05-3.452a2.758,2.758,0,0,1,3.55,2.533C2138.45,312.051,2134.78,311.373,2133.94,313.02ZM386.862,451.8c2.5-.225,2.326,1.716,2.342,3.177,0.024,2.118-.635,4.125-3.07,4.521-1.634.266-3.466-.119-3.441-2.275C382.725,454.527,384.615,452.97,386.862,451.8ZM604.223,482.8c-2.1,4.05,3.048,10.832-4.794,12.72C596.169,489.453,598.959,485.663,604.223,482.8Zm-253.24,68.219c-1.85,6.536-6.12,4.763-11.055,4.277C342.542,549.32,349.058,555.863,350.983,551.023ZM2113.34,331.009c-0.76,3.141,3.94,6.537.93,8.76-2.84,2.094-4.1-2.693-6.37-3.952C2108.25,332.566,2110.02,330.914,2113.34,331.009Zm-77.92,32.955c-1.12-5.631.64-8.1,5.93-9.175C2041.54,359.613,2038.53,361.233,2035.42,363.964ZM329.324,588.969c-0.5.646-1.218,2.506-2.393,2.862a2.61,2.61,0,0,1-3.11-2.7c-0.051-1.893,1.355-2.733,3.124-2.808C328.172,586.272,329.341,586.485,329.324,588.969Zm27.369-65.88c-1.674.709-3.178,1.637-3.4,1.393a9.578,9.578,0,0,1-2.451-3.977c-0.349-1.511,1.2-2,2.234-1.3C354.3,520.026,355.162,521.392,356.693,523.089Zm417.542-8.634c-0.683.781-1.462,2.394-2.7,2.923-1.85.789-3.2-.388-2.679-2.432,0.374-1.476,1.127-3.512,2.261-3.988C772.905,510.207,773.711,512.056,774.235,514.455ZM295.753,747.614c-0.259,2.711.5,5.734-2.336,7.658C289.278,751.219,293.268,749.646,295.753,747.614Zm73.316-227.062c-3.162,1.621-6.066,1.947-8.437-1.689,3.391-1.5,6.294-1.816,8.458,1.659ZM2144.21,998.272c6.99,0.627,6.04,3.438,1.95,7.108Q2145.185,1001.825,2144.21,998.272ZM470.136,1315.46q3.72,0.015,7.44.05c-0.455,2.67-2.05,4.51-4.7,4.49C470.074,1319.98,470.6,1317.26,470.136,1315.46ZM2358.32,851.272c-13.17-11.109-24.83-23.671-44.21-26.9-8.93-1.489-19.5-1.726-28.41-6.669-8.71-4.834-19.3-1.306-22.37,8.412-7.1,22.406-22.28,31.758-44.97,32.871-8.61.423-18.64,5.825-25.64,1.3-12.52-8.084-25.62-6.238-38.59-6.456-17.98-.3-27.92,10.268-27.31,27.868,0.65,18.561-6.01,35.081-14.23,50.927-9.96,19.2-22.01,37.361-31.44,56.8-19.62,40.41-47.08,74.44-81.39,102.95-8.85,7.35-18.72,14.03-30.06,17.69-10.65,3.43-14.81.54-12.52-10.47,2.16-10.4,2.01-20.86,2.95-31.26,1.16-12.78,7.12-22.74,15.47-31.78,11.5-12.45,24.69-23.42,33.66-38.128,2.17-3.556,3.9-7.661,6.86-10.4,18.53-17.143,30.75-38.757,43.49-60.041a6.868,6.868,0,0,0,.49-7.038c-3.18-6.939-22.88-18.386-30.72-18.277a253.769,253.769,0,0,1-40.14-2.323c-18.23-2.69-29.7,1.873-35.05,19.943-4.14,13.984-8.09,27.667-16.33,40.4-10.51,16.245-14.95,35.792-17.75,54.623-3.32,22.28-18,32.22-35.29,42.09,1.28-8.54,3.12-16.27,3.51-24.07,1.41-28.37-25.79-47.057-50.32-46.288-26.48.831-47.48,14.728-67.87,29.628-3.65,2.66-6.67,5.58-12.54,5.02,8.16-26.781,14.91-52.894,24.15-78.1,7.88-21.5,7.85-25.153-13.34-34.967-15.88-7.352-35.57-2.132-38.61,18.321-2.86,19.273-7.4,38.344-12.08,57.284-4.68,18.869-11.97,37.189-15.44,56.239-7.77,42.63-19.75,84.15-32.01,125.54-3.37,11.38.49,25.02-6.39,33.45-12.26,15.03-12.38,33.96-20.05,50.39-9.81,21.05-20.67,42.56-24.62,66.17-0.25,1.47-2.12,2.59-2.68,4.09-5.1,13.52-8.83,28.16-19.16,38.56-11.41,11.5,7.22,34.31-16.23,40.32-0.3.08-.25,1.58-0.32,2.41-1.88,21.75,6.96,39.91,20.73,55.4,8.07,9.08,33.02,2.16,38.23-8.93,10.57-22.5,15.51-46.83,23.11-70.28q17.67-54.51,33.58-109.58c3.88-13.45,11.38-25.95,11.04-40.63-0.19-8.08,4.35-6.36,9.03-3.65,6.14,3.58,11.74,4.65,18.55.01,20.82-14.17,42.12-27.47,61.12-44.33,32.37-28.73,69.81-50.73,104.65-76.21,12.97-9.48,13.48-8.79,20.3,5.79,12.55,26.85,42.63,42.01,68.28,32.12,17.51-6.75,33.13-16.72,48.21-29.41,27.76-23.39,46.23-52.74,62.94-83.29,14.68-26.84,28.79-53.957,44.95-79.952,8.44-13.579,19.45-25.693,23.71-41.651,2.49-1.7,3.16-5,5.33-6.713,6.27-4.953,13.84-2.9,19.31.08,6.14,3.348,1.14,8.429-1.76,12.325l-41.25,72.333c-3.43,3.641-3.2,7.846-2.43,12.423,0.44,2.632,2.43,6.2-1.92,7.885-9,6.1-9.09,6.7-3.51,15.7,0.53,0.84.28,2.32,0.06,3.44-1.42,7.29-1.99,14.93-4.59,21.78-8.15,21.42-17.8,42.19-24.33,64.34-4.76,16.14-5.04,32.46-4.6,48.5,0.38,13.93,4,28.48,9.4,41.41,13.05,31.23,29.68,59.39,68.46,64.25,26.63,3.33,49.8-2.14,67.8-22.69,4.65-5.32,9.01-11.89,9.05-19.78,0.01-3.9-1.28-7.49-4.66-9.81-4.17-2.85-6.02,1.53-8.36,3.28-10.03,7.55-21.59,11.09-33.67,12.88-15.69,2.32-21.39-3.07-28.42-17.37-10.12-20.58-2.69-41.22-.2-60.69,4.96-38.71,21.77-74.57,37.29-110.25,10.36-23.82,22.64-46.843,34.85-69.807,10.37-19.5,21.98-38.346,36.76-54.959,16.94-19.031,35.05-36.773,57.73-48.984C2363.46,862.155,2363.76,855.868,2358.32,851.272ZM1848.78,1029.3c-0.04,2.09-.01,4.18-0.01,6.27-4.27,35.79-15.12,67.94-46.24,90.26-21.74,15.59-42.32,32.8-65.4,46.51-3.2,1.9-6.58,5.25-10.28,3.18-4.86-2.71-1.99-7.81-1.19-11.41,5.63-25.24,7.69-52.08,20.03-74.75,13.02-23.91,35-40.88,58.37-55.13,8.91-5.43,17.98-10.62,27.12-15.67C1845.91,1010.41,1849.02,1012.37,1848.78,1029.3Zm-855.7-337.251c-10.208,8.764-22.288,16.819-35.128,11.263-12.7-5.5-12.344-20.5-14.2-32.87-2.909-19.377,1.013-38.3,4.019-57.174,3.528-22.156,6.465-44.7,13.2-65.959,5.713-18.037,12.517-35.88,18.522-53.922,4.223-12.69-3.211-22.241-16.339-20.6-17.884,2.229-35.848,4.035-47.5,21.03-2.729,3.979-6.741,8.368-13.8,4.583-16.432-8.809-35.349-6.394-51.419-3.056-17.441,3.623-33.289,6.839-50.168.413-1.472-.561-3.753-0.852-3.966,1.488-0.64,7.025-13.022,8.654-8.066,18.551,1.363,2.722-3.6,3.895-5.381,5.918-11.411,12.952-27.885,21.116-35.4,37.749-14.736,32.607-29.738,65.093-44.413,97.727C692.28,681.1,681.554,705.1,684.25,732.4c2.459,24.912,27.268,43.486,48.53,35.542a114.815,114.815,0,0,0,48.076-34.7c22-26.725,46.8-50.89,66.911-79.558,15.841-22.578,30.778-45.493,44.811-69.125,5.416-9.121,10.775-18.275,16.161-27.414a59.807,59.807,0,0,1,2.352,23.052c-2.2,23.354-4.968,46.606-1.974,70.157,2.847,22.386,10.679,41.882,28.78,56.371,22.828,18.271,53.713,10.1,62.273-19C996.471,689.957,994.574,690.768,993.081,692.049Zm-116.7-138.822c-2.756.691-4.047,2.741-4.854,5.238-21.906,30.928-43.429,62.135-65.84,92.692-17.227,23.488-36.538,45.331-56.911,66.176a78.359,78.359,0,0,1-28.207,18.883c5.01-18.122,8.134-34.645,14.249-49.974,5.348-13.406,13.2-26.036,19.5-39.049,15.035-31.062,35.4-57.575,60.074-81.2a7.529,7.529,0,0,0,1.446-2.038c15.1-29.945,39.775-29.434,67.638-21.186Z"/>
  <path id="Flaming_Creatures" data-name="Flaming Creatures" class="cls-2" d="M1083.28,1289.85c-0.21-1.35-.37-2.89-0.5-4.6-0.2-2.54-.32-4.07-0.36-4.61a119.546,119.546,0,0,1-12.7.37h-16.81c-0.74,0-1.11.19-1.11,0.56,0,0.4.33,0.61,1,.61a10.821,10.821,0,0,1,3.2.34,1.464,1.464,0,0,1,.65,1.38v35.32a6.1,6.1,0,0,1-.37,2.86c-0.24.31-1.07,0.5-2.48,0.58s-2.12.29-2.12,0.62,0.39,0.49,1.17.49h13.98c0.82,0,1.23-.18,1.23-0.55,0-.33-0.32-0.49-0.97-0.49a9.825,9.825,0,0,1-2.97-.19,2.126,2.126,0,0,1-1.4-2.27v-18.28c1.14-.08,2.47-0.12,3.97-0.12,2.85,0,4.76.31,5.71,0.92s1.6,2.17,1.93,4.66a27.727,27.727,0,0,0,.42,2.83,0.567,0.567,0,0,0,.61.36,0.6,0.6,0,0,0,.62-0.73,4.311,4.311,0,0,0-.05-0.74c-0.14-1.8-.2-4.25-0.2-7.36q0-3.615.18-7.85a5.849,5.849,0,0,0,.07-0.92c0-.62-0.21-0.92-0.62-0.92s-0.65.47-.73,1.41c-0.25,3.31-.99,5.33-2.21,6.04s-4.46,1.05-9.7,1.01v-18.03q3.93-.195,6.75-0.19c2.54,0,4.17.04,4.91,0.13a7.922,7.922,0,0,1,4.54,1.61c1.51,1.37,2.52,3.54,3.01,6.52,0.16,1.04.45,1.56,0.85,1.56s0.62-.29.62-0.86a10.8,10.8,0,0,0-.12-1.47h0Zm24.18,25.64c-0.36,0-.59.49-0.67,1.47q-0.36,3.375-1.71,4.42-1.65,1.29-8.24,1.29c-0.74,0-1.92-.02-3.55-0.06v-22.82a9.286,9.286,0,0,1,.19-2.64,1.331,1.331,0,0,1,1.16-.43c1.35-.04,2.03-0.18,2.03-0.41q0-.51-1.17-0.51h-9.93c-0.54,0-.8.14-0.8,0.43,0,0.33.22,0.49,0.67,0.49a5.756,5.756,0,0,0,1.07.06,3.018,3.018,0,0,1,1.08.12c0.37,0.13.55,1.34,0.55,3.63v20.6a3.433,3.433,0,0,1-.15,1.35,1.079,1.079,0,0,1-.83.31c-1.6.12-2.39,0.29-2.39,0.52,0,0.27.26,0.4,0.79,0.4h5.03l10.49,0.12h2.89a20.5,20.5,0,0,1,2.3.1c0.59,0.06.91,0.09,0.95,0.09a5.892,5.892,0,0,0,.92-0.06c0.08-1.56.12-3.48,0.12-5.77,0-1.8-.26-2.7-0.8-2.7h0Zm31.06,7.36a19.339,19.339,0,0,1-1.97-.18c-0.45-.08-0.92-0.76-1.41-2.03q-7.665-19.2-9.5-23.68a4.318,4.318,0,0,0-.8-1.71,1.17,1.17,0,0,0-.74.92l-0.42,1.1-0.93,2.58c-1.26,3.4-2.25,5.94-2.94,7.62a10.977,10.977,0,0,0-.49,1.3c-0.08.28-.25,0.71-0.49,1.29-0.66,1.6-1.33,3.32-2.03,5.16q-2.64,6.825-3,7.01a2.375,2.375,0,0,1-1.35.56c-0.25.04-.74,0.08-1.48,0.12-0.53.04-.79,0.21-0.79,0.49,0,0.25.32,0.37,0.98,0.37h0.12l0.68-.09,0.55-.09h0.55c1.02,0,2.2.03,3.53,0.09s2.05,0.09,2.17.09q1.29,0,1.29-.42c0-.25-0.24-0.38-0.73-0.38l-0.56-.18h-0.92l-0.79-.06a0.647,0.647,0,0,1-.74-0.61c0-.66.84-3.09,2.52-7.31h8.77l0.74,2.08q1.275,3.585,1.41,4.08a8.515,8.515,0,0,1,.36,1.16c0,0.36-.88.57-2.63,0.61-1.48.04-2.21,0.22-2.21,0.54s0.37,0.49,1.1.49h12.09c0.81,0,1.22-.12,1.22-0.37,0-.32-0.38-0.51-1.16-0.55h0Zm-19.34-9.08q2.61-6.8,4.1-10.48l3.95,10.48h-8.05Zm53.38,9.02a11.588,11.588,0,0,1-2.82-.18c-0.29-.13-0.43-1.01-0.43-2.64v-21.66a1.282,1.282,0,0,1,.86-1.35c0.2-.04.84-0.08,1.9-0.12,0.78-.04,1.17-0.21,1.17-0.52,0-.39-0.54-0.56-1.6-0.52h-7.36l-5.28,15.09c-0.33.94-.81,2.39-1.43,4.35l-3.23-8.03q-1.47-3.615-2.09-5.16l-1.47-3.68c-0.33-.81-0.59-1.45-0.8-1.9l-0.24-.67c-4.21,0-6.67.02-7.36,0.06s-1.05.18-1.05,0.43c0,0.33.27,0.49,0.8,0.49a5.464,5.464,0,0,1,2.67.43c0.27,0.24.4,1.06,0.4,2.45v20.8a4.662,4.662,0,0,1-.22,1.99,2.52,2.52,0,0,1-1.56.34c-1.31.04-1.96,0.21-1.96,0.49,0,0.33.3,0.49,0.92,0.49h6.99c0.82,0,1.23-.16,1.23-0.49,0-.29-0.27-0.43-0.8-0.43-0.9,0-1.64-.02-2.21-0.06a0.9,0.9,0,0,1-.61-0.99v-21.03q6.87,16.74,8.28,20.98c0.37,1.1.72,1.65,1.04,1.65,0.25,0,.58-0.63.98-1.9q2.16-6.69,3.56-10.92,2.46-7.05,3.56-10.12v19.8a6.335,6.335,0,0,1-.21,2.28,2.251,2.251,0,0,1-1.51.37c-1.18.04-1.87,0.07-2.05,0.11a0.3,0.3,0,0,0-.28.32c0,0.29.37,0.43,1.11,0.43h10.92c0.73,0,1.1-.16,1.1-0.49s-0.31-.49-0.92-0.49h0Zm15.12,0.12a9.674,9.674,0,0,1-2.18-.3,0.769,0.769,0,0,1-.46-0.8v-23.13a4.383,4.383,0,0,1,.18-1.69,1.33,1.33,0,0,1,1.05-.27c1.39-.04,2.08-0.19,2.08-0.43,0-.33-0.33-0.49-0.98-0.49h-10.12c-0.53,0-.8.14-0.8,0.43a0.443,0.443,0,0,0,.55.43h1.84a0.908,0.908,0,0,1,.92.46,16.275,16.275,0,0,1,.13,2.81v19.89a18.082,18.082,0,0,1-.1,2.66c-0.06.21-.7,0.35-1.93,0.43q-1.35.06-1.35,0.48c0,0.21.35,0.32,1.04,0.32h10.31c0.37,0,.55-0.12.55-0.37s-0.24-.39-0.73-0.43h0Zm31.2-27.06c-0.37-.03-1.68-0.05-3.93-0.05-2.37,0-3.75.02-4.14,0.05s-0.58.16-.58,0.35c0,0.3.39,0.46,1.16,0.46h1.66a1.178,1.178,0,0,1,.98.24,6.806,6.806,0,0,1,.12,1.78v17.05l-14.47-19.93h-7.8c-0.53,0-.79.13-0.79,0.4,0,0.34.51,0.52,1.53,0.52a3.078,3.078,0,0,1,2.88,1.23c0.37,0.62.56,2.48,0.56,5.56v16.99a11.081,11.081,0,0,1-.07,1.79c-0.04.29-.55,0.48-1.53,0.56l-0.8.06h-0.55c-0.78,0-1.16.14-1.16,0.4,0,0.31.32,0.46,0.98,0.46a24.423,24.423,0,0,0,2.51-.12q0.615-.06,1.23-0.06c0.49,0,1.04.02,1.66,0.06,1.18,0.08,1.86.12,2.02,0.12,0.9,0,1.35-.15,1.35-0.46,0-.26-0.25-0.4-0.74-0.4h-0.24a15.184,15.184,0,0,1-2.36-.12c-0.43-.08-0.65-0.89-0.65-2.41v-19.45q8.04,11.22,11.11,15.29c0.37,0.49.59,0.8,0.67,0.93,0.61,0.78,1.06,1.39,1.34,1.84q3.69,5.145,4.37,5.15a0.468,0.468,0,0,0,.55-0.37c0.04-.25.06-1.11,0.06-2.59v-22.61a8.068,8.068,0,0,1,.09-1.67,0.636,0.636,0,0,1,.65-0.24h1.53c0.9,0,1.35-.15,1.35-0.43C1219.43,1296.01,1219.25,1295.89,1218.88,1295.85Zm29.26,18.84h-9.88c-0.98,0-1.47.17-1.47,0.52a0.4,0.4,0,0,0,.49.4h0.98a4.767,4.767,0,0,1,2.3.28,5.331,5.331,0,0,1,.28,2.46,7.539,7.539,0,0,1-.31,2.56q-0.855,2.31-4.54,2.31a7.33,7.33,0,0,1-6.41-3.55q-2.355-3.555-2.36-9.67,0-6.36,2.33-10.04a7.257,7.257,0,0,1,6.44-3.67,7.04,7.04,0,0,1,5.49,2.36,9.562,9.562,0,0,1,2.24,6.35c0,0.49.19,0.74,0.56,0.74,0.49,0,.73-0.47.73-1.42q0-5.265.19-7.05c0.08-.78.12-1.12,0.12-1.04a0.434,0.434,0,0,0-.49-0.49,1.249,1.249,0,0,0-.86,1.1,0.8,0.8,0,0,1-.68.8,1.066,1.066,0,0,1-.55-0.19,14.9,14.9,0,0,0-7.11-2.08,13.586,13.586,0,0,0-10.28,4.07,14.782,14.782,0,0,0-3.9,10.68,13.45,13.45,0,0,0,3.99,10.19q3.99,3.825,10.74,3.83a14.3,14.3,0,0,0,9.32-3.31v-2.46a9.053,9.053,0,0,1,.16-2.21,0.686,0.686,0,0,1,.46-0.55h1.96c0.74-.04,1.1-0.16,1.1-0.37,0-.36-0.34-0.55-1.04-0.55h0Zm49.57-5.64c-0.33,0-.59.49-0.8,1.47a25.824,25.824,0,0,1-2.24,6.72,10.775,10.775,0,0,1-4.08,4.38,11,11,0,0,1-5.83,1.6,11.868,11.868,0,0,1-9.93-4.91q-4.3-5.64-4.3-15.89,0-11.46,5.22-17.42a9.861,9.861,0,0,1,7.85-3.31q6.435,0,9.45,4.91a20.863,20.863,0,0,1,2.27,7.3c0.12,0.77.38,1.16,0.79,1.16a0.657,0.657,0,0,0,.49-0.18,2.568,2.568,0,0,0,.19-1.35,59.043,59.043,0,0,1,.67-11.05,4.429,4.429,0,0,0,.13-0.79,0.434,0.434,0,0,0-.49-0.49q-0.495,0-1.29,1.71a1.405,1.405,0,0,1-1.05.99,4.662,4.662,0,0,1-2.02-.8,21.366,21.366,0,0,0-4.63-2.12,19.224,19.224,0,0,0-5-.52,17.923,17.923,0,0,0-14.02,6.1q-5.43,6.105-5.43,15.74,0,9.57,5.92,15.86a19.663,19.663,0,0,0,14.94,6.29,15.543,15.543,0,0,0,10.61-3.87,5.37,5.37,0,0,1,1.72,2.64,1.151,1.151,0,0,0,.86.92c0.33,0,.49-0.27.49-0.8v-0.55a26.578,26.578,0,0,0-.12-2.73,15.516,15.516,0,0,1-.13-1.56c0-2.29.09-4.58,0.25-6.88q0.12-1.71.12-1.65c0-.61-0.2-0.92-0.61-0.92h0Zm29.45,11.84a1.047,1.047,0,0,0-1.23,1.13,1.422,1.422,0,0,0,.16.51,1.762,1.762,0,0,1,.15.39c0,0.12-.1.18-0.31,0.18q-1.89,0-2.27-3.79c-0.36-3.7-1.19-6.27-2.48-7.69s-3.65-2.33-7.09-2.69a14.48,14.48,0,0,0,7.43-2.17,5.7,5.7,0,0,0,2.64-4.86,5.113,5.113,0,0,0-2.49-4.42,11.577,11.577,0,0,0-6.59-1.68h-11.6c-0.57,0-.86.14-0.86,0.43,0,0.32.48,0.49,1.44,0.49a4.366,4.366,0,0,1,1.78.21,0.98,0.98,0,0,1,.34.89v24.23c0,0.58-.69.86-2.08,0.86h-0.86c-0.41,0-.62.16-0.62,0.46,0,0.27.58,0.4,1.72,0.4h9.88c0.57,0,.86-0.14.86-0.43s-0.23-.43-0.67-0.43c-2.17,0-3.2-.28-3.08-0.86v-12.63c2.25,0.08,3.82.47,4.74,1.16a5.067,5.067,0,0,1,1.68,3.66,42.1,42.1,0,0,0,.74,5.2,6.008,6.008,0,0,0,1.22,2.2,6.685,6.685,0,0,0,5.38,2.5c2.28,0,3.42-.65,3.42-1.96a1.167,1.167,0,0,0-1.35-1.29h0Zm-15.83-12.46v-10a1.756,1.756,0,0,1,.34-1.31,3.188,3.188,0,0,1,1.73-.28q5.415,0,5.42,5.49,0,6.105-7.49,6.1h0Zm42.41,7c-0.41,0-.64.31-0.68,0.92q-0.42,5.22-2.87,5.89c-1.06.28-4.58,0.45-10.56,0.49v-13.25h1.51c2.62,0,4.21.21,4.78,0.64s0.97,1.75,1.21,3.96c0.12,1.02.36,1.53,0.73,1.53,0.4,0,.6-0.32.6-0.98,0-.2-0.01-0.47-0.04-0.8-0.1-.98-0.14-2.8-0.14-5.46,0-.53.03-1.3,0.09-2.33s0.09-1.78.09-2.27c0-.82-0.2-1.22-0.61-1.22-0.37,0-.62.57-0.74,1.71-0.2,1.93-.61,3.1-1.22,3.53s-2.21.64-4.8,0.64h-1.46v-11.47h3.11a27.969,27.969,0,0,1,6.35.43q2.385,0.795,3.24,5.46c0.16,0.82.43,1.23,0.8,1.23,0.28,0,.42-0.26.42-0.79a3.727,3.727,0,0,0-.06-0.72c-0.24-3.02-.41-4.84-0.49-5.44l-0.06-.91v-0.42h-20.98c-0.53,0-.8.16-0.8,0.49,0,0.28.25,0.43,0.74,0.43a8.781,8.781,0,0,1,2.14.15c0.29,0.1.43,0.99,0.43,2.67v21.1a3.339,3.339,0,0,1-.33,2,5.291,5.291,0,0,1-2.3.27c-0.49,0-.74.19-0.74,0.56,0,0.32.43,0.49,1.3,0.49l11.71-.19,10.24,0.19a4.811,4.811,0,0,1-.18-1.23v-3.56a10.49,10.49,0,0,1,.09-1.28q0.09-.705.09-0.78h0c0-1.12-.2-1.68-0.61-1.68h0Zm31.07,7.42a18.577,18.577,0,0,1-1.96-.18c-0.45-.08-0.92-0.76-1.42-2.03q-7.665-19.2-9.5-23.68a4.318,4.318,0,0,0-.8-1.71,1.17,1.17,0,0,0-.74.92l-0.42,1.1-0.92,2.58c-1.27,3.4-2.26,5.94-2.95,7.62a10.977,10.977,0,0,0-.49,1.3c-0.08.28-.25,0.71-0.49,1.29-0.66,1.6-1.33,3.32-2.03,5.16q-2.64,6.825-3,7.01a2.375,2.375,0,0,1-1.35.56c-0.25.04-.74,0.08-1.48,0.12-0.53.04-.79,0.21-0.79,0.49,0,0.25.33,0.37,0.98,0.37h0.12l0.68-.09,0.55-.09h0.55c1.02,0,2.2.03,3.53,0.09s2.05,0.09,2.18.09c0.85,0,1.28-.14,1.28-0.42,0-.25-0.24-0.38-0.73-0.38l-0.55-.18h-0.92l-0.8-.06a0.647,0.647,0,0,1-.74-0.61c0-.66.84-3.09,2.52-7.31h8.77l0.74,2.08q1.275,3.585,1.41,4.08a9.575,9.575,0,0,1,.37,1.16c0,0.36-.88.57-2.64,0.61-1.48.04-2.21,0.22-2.21,0.54s0.37,0.49,1.1.49h12.09c0.82,0,1.23-.12,1.23-0.37,0-.32-0.39-0.51-1.17-0.55h0Zm-19.34-9.08q2.61-6.8,4.1-10.48l3.95,10.48h-8.05Zm43.45-11.25-0.12-1.08-0.19-2.53-0.18-2.16-0.06-1.26a5.211,5.211,0,0,1-1.29.2c-3.89.07-6.46,0.11-7.73,0.11h-14.29q-0.555,5.13-.56,6.89c0,0.93.19,1.39,0.56,1.39,0.4,0,.67-0.47.79-1.4,0.33-2.55.97-4.18,1.94-4.87s3.03-1.01,6.22-.97v22.07c0,1.73-.02,2.76-0.06,3.11a0.694,0.694,0,0,1-.55.65,2.621,2.621,0,0,1-.98.12c-1.35.04-2.03,0.2-2.03,0.49s0.41,0.43,1.23.43h10c0.69,0,1.04-.14,1.04-0.43s-0.59-.45-1.78-0.49-1.78-.45-1.78-1.23V1296.9c0.86-.04,1.5-0.06,1.91-0.06q4.17,0,5.33,2.14a9.8,9.8,0,0,1,1.05,3.97c0.04,0.75.32,1.13,0.85,1.13a0.7,0.7,0,0,0,.74-0.84q0-.18-0.06-0.72h0Zm29.4-6.72h-6.93c-0.49,0-.74.14-0.74,0.42,0,0.37.47,0.55,1.41,0.55a4.573,4.573,0,0,1,1.72.19,1.082,1.082,0,0,1,.31.97v14.78a16.837,16.837,0,0,1-.86,6.29q-1.71,3.915-6.44,3.91a6.29,6.29,0,0,1-5.09-2.02c-1.02-1.18-1.54-3.77-1.54-7.77v-14.69a3.9,3.9,0,0,1,.13-1.38,0.934,0.934,0,0,1,.79-0.21c1.52,0.04,2.27-.14,2.27-0.55,0-.33-0.36-0.49-1.1-0.49h-9.69c-0.58,0-.86.14-0.86,0.43,0,0.32.43,0.49,1.29,0.49a2.919,2.919,0,0,1,1.81.3,14.264,14.264,0,0,1,.21,3.61v12.92c0,4.08.92,6.84,2.76,8.26a12.805,12.805,0,0,0,8.04,2.33q6.075,0,8.46-3.85a8.9,8.9,0,0,0,1.29-3.42,68.6,68.6,0,0,0,.25-7.63v-11.3a0.981,0.981,0,0,1,.98-1.22h1.53c0.66,0,.98-0.15.98-0.43,0-.33-0.32-0.49-0.98-0.49h0Zm28.52,25.09a1.039,1.039,0,0,0-1.22,1.13,1.362,1.362,0,0,0,.15.51,1.762,1.762,0,0,1,.15.39q0,0.18-.3.18-1.9,0-2.27-3.79c-0.37-3.7-1.2-6.27-2.49-7.69s-3.65-2.33-7.08-2.69a14.44,14.44,0,0,0,7.42-2.17,5.7,5.7,0,0,0,2.64-4.86,5.113,5.113,0,0,0-2.49-4.42,11.555,11.555,0,0,0-6.59-1.68h-11.6c-0.57,0-.86.14-0.86,0.43,0,0.32.48,0.49,1.45,0.49a4.4,4.4,0,0,1,1.78.21,1,1,0,0,1,.33.89v24.23c0,0.58-.69.86-2.08,0.86h-0.86c-0.41,0-.62.16-0.62,0.46,0,0.27.58,0.4,1.72,0.4h9.88c0.57,0,.86-0.14.86-0.43s-0.22-.43-0.67-0.43c-2.17,0-3.2-.28-3.07-0.86v-12.63c2.24,0.08,3.82.47,4.73,1.16a5.067,5.067,0,0,1,1.68,3.66,42.1,42.1,0,0,0,.74,5.2,6.008,6.008,0,0,0,1.22,2.2,6.7,6.7,0,0,0,5.38,2.5c2.28,0,3.42-.65,3.42-1.96a1.167,1.167,0,0,0-1.35-1.29h0Zm-15.82-12.46v-10a1.764,1.764,0,0,1,.33-1.31,3.188,3.188,0,0,1,1.73-.28q5.415,0,5.42,5.49,0,6.105-7.48,6.1h0Zm42.4,7c-0.41,0-.64.31-0.68,0.92q-0.42,5.22-2.87,5.89c-1.05.28-4.58,0.45-10.56,0.49v-13.25h1.51c2.62,0,4.22.21,4.78,0.64s0.97,1.75,1.21,3.96c0.12,1.02.37,1.53,0.73,1.53,0.4,0,.6-0.32.6-0.98,0-.2-0.01-0.47-0.04-0.8-0.09-.98-0.14-2.8-0.14-5.46,0-.53.03-1.3,0.09-2.33s0.09-1.78.09-2.27c0-.82-0.2-1.22-0.61-1.22-0.37,0-.61.57-0.74,1.71-0.2,1.93-.61,3.1-1.21,3.53s-2.21.64-4.81,0.64h-1.46v-11.47h3.11a28.143,28.143,0,0,1,6.36.43q2.37,0.795,3.23,5.46c0.17,0.82.43,1.23,0.8,1.23,0.28,0,.43-0.26.43-0.79a3.655,3.655,0,0,0-.07-0.72c-0.24-3.02-.41-4.84-0.49-5.44l-0.06-.91v-0.42h-20.98c-0.53,0-.8.16-0.8,0.49,0,0.28.25,0.43,0.74,0.43a8.944,8.944,0,0,1,2.15.15c0.28,0.1.43,0.99,0.43,2.67v21.1a3.309,3.309,0,0,1-.34,2,5.258,5.258,0,0,1-2.3.27c-0.49,0-.74.19-0.74,0.56,0,0.32.43,0.49,1.3,0.49l11.72-.19,10.23,0.19a4.811,4.811,0,0,1-.18-1.23v-3.56a10.49,10.49,0,0,1,.09-1.28q0.09-.705.09-0.78h0c0-1.12-.2-1.68-0.61-1.68h0Zm21.77-3.84a19.5,19.5,0,0,0-5.64-3.76q-3.57-1.71-4.3-2.14a5.131,5.131,0,0,1-2.51-4.58q0-4.695,4.41-4.7a5.548,5.548,0,0,1,3.96,1.61,8,8,0,0,1,2.24,4.29c0.16,0.73.43,1.09,0.8,1.09,0.33,0,.49-0.24.49-0.73a2.258,2.258,0,0,0-.06-0.55c-0.12-1.6-.19-2.7-0.19-3.32a19.107,19.107,0,0,1,.13-2.51,3.973,3.973,0,0,0,.06-0.49,0.551,0.551,0,0,0-.62-0.62,0.807,0.807,0,0,0-.73.89c-0.08.6-.27,0.89-0.55,0.89a1.019,1.019,0,0,1-.49-0.18,10.617,10.617,0,0,0-4.97-1.41,9,9,0,0,0-6.2,2.17,7.009,7.009,0,0,0-2.45,5.52,6.211,6.211,0,0,0,1.65,4.4q1.29,1.35,5.95,3.67a16.536,16.536,0,0,1,4.79,3.17,5.375,5.375,0,0,1,1.23,3.67q0,5.13-5.16,5.13-6.075,0-7.24-6.75c-0.2-1.27-.51-1.9-0.92-1.9s-0.61.39-.61,1.16v3.13c0,0.82-.04,1.8-0.12,2.95s-0.13,1.75-.13,1.84a0.548,0.548,0,0,0,.62.61,0.565,0.565,0,0,0,.61-0.43,6.282,6.282,0,0,0,.18-1.02c0.05-.38.19-0.57,0.43-0.57a2.416,2.416,0,0,1,.5.11,12.768,12.768,0,0,0,6.44,1.91,10.751,10.751,0,0,0,7.11-2.44,7.388,7.388,0,0,0,2.95-5.87A6.046,6.046,0,0,0,1515.19,1311.59Z"/>
</svg>
