<svg width="2560" height="1707" viewBox="0 0 2560 1707" version="1.1" xmlns="http://www.w3.org/2000/svg" xmlns:xlink="http://www.w3.org/1999/xlink">
<title>mask</title>
<desc>Created using Figma</desc>
<g id="Canvas" transform="translate(-1798 -542)">
<g id="mask">
<g id="Vector">
<use xlink:href="#path0_fill" transform="translate(1798 542)" fill="#FFFFFF"/>
</g>
<g id="Right Through">
<use xlink:href="#path1_fill" transform="translate(2888.41 1822.46)"/>
<use xlink:href="#path2_fill" transform="translate(2888.41 1822.46)"/>
<use xlink:href="#path3_fill" transform="translate(2888.41 1822.46)"/>
<use xlink:href="#path4_fill" transform="translate(2888.41 1822.46)"/>
<use xlink:href="#path5_fill" transform="translate(2888.41 1822.46)"/>
<use xlink:href="#path6_fill" transform="translate(2888.41 1822.46)"/>
<use xlink:href="#path7_fill" transform="translate(2888.41 1822.46)"/>
<use xlink:href="#path8_fill" transform="translate(2888.41 1822.46)"/>
<use xlink:href="#path9_fill" transform="translate(2888.41 1822.46)"/>
<use xlink:href="#path10_fill" transform="translate(2888.41 1822.46)"/>
<use xlink:href="#path11_fill" transform="translate(2888.41 1822.46)"/>
<use xlink:href="#path12_fill" transform="translate(2888.41 1822.46)"/>
</g>
</g>
</g>
<defs>
<path id="path0_fill" fill-rule="evenodd" d="M 0 0L 2560 0L 2560 1707L 0 1707L 0 0ZM 470.136 1315.46C 465.792 1309.12 458.27 1315.45 454.736 1312.63C 441.778 1302.33 422.745 1302.38 412.85 1286.64C 408.45 1279.99 402.599 1274.42 395.738 1270.36C 387.491 1265.27 385.283 1256.08 386.603 1247.01C 389.958 1223.49 392.093 1199.82 393 1176.08C 396.08 1101.61 403.684 1027.54 418.339 954.38C 420.506 943.562 423.739 932.814 429.534 922.661C 433.193 916.25 434.147 906.982 432.048 898.695C 430.761 893.612 432.642 888.95 433.742 884.232C 436.31 873.217 439.82 862.384 441.742 851.269C 443.511 841.025 444.753 830.239 433.985 823.087C 431.629 821.522 431.297 819.208 431.841 816.441C 434.341 803.741 455.53 791.276 468.277 790.562C 488.269 789.443 501.93 803.626 519.397 807.956C 520.399 808.24 521.331 808.731 522.132 809.397C 522.932 810.063 523.585 810.889 524.047 811.823C 530.3 829.288 538.16 846.495 532.715 865.923C 522.868 901.053 528.115 936.291 529.848 971.923C 531.098 997.63 533.707 1024.63 524.771 1050.31C 523.277 1054.61 524.561 1059.87 524.561 1066.12C 546.588 1053.22 561.485 1035.2 577.9 1019.25C 610.014 987.974 646.304 961.294 685.735 939.969C 690.16 937.482 695.222 936.358 700.284 936.74C 712.371 937.701 724.497 938.207 736.565 939.34C 752.182 940.808 754.575 946.992 756.565 962.582C 760.321 991.941 758.098 1021.22 756.771 1050.26C 755.471 1078.7 755.585 1107.03 755.639 1135.42C 755.646 1139.27 753.292 1144.94 758.884 1146.21C 763.551 1147.28 765.846 1142.2 767.961 1138.77C 792.561 1098.85 814.524 1057.48 836.123 1015.89C 844.99 998.813 853.049 981.051 864.097 965.459C 873.749 951.836 884.882 939.705 887.187 922.265C 887.525 919.711 891.187 918.335 894.1 917.343C 901.293 914.889 905.915 908.968 908.614 902.708C 914.214 889.715 924.714 879.918 931.243 868.487C 942.523 848.749 960.902 840.217 977.61 828.833C 995.804 816.433 1016.91 812.21 1038.79 814.118C 1044.71 814.634 1052.6 812.833 1055.87 821.469C 1057.52 825.81 1060.58 822.731 1063.05 821.526C 1076.05 815.18 1095.44 817.711 1105.3 826.87C 1108.51 829.86 1110.06 834.333 1107.43 836.97C 1095.05 849.395 1094.26 866.614 1088.96 881.647C 1073.68 925.064 1059.59 968.914 1042.59 1014.43C 1065.28 1002.69 1086.56 1000.85 1108.84 1006.85C 1123.38 1010.77 1129.74 1017.68 1129.04 1033.65C 1128.63 1045.76 1127.35 1057.82 1125.23 1069.75C 1120.89 1092.91 1120.58 1116.19 1120.6 1139.61C 1120.61 1148.19 1124.2 1148.51 1130.39 1146.43C 1138.92 1143.56 1145.6 1137.81 1152.59 1132.39C 1190.39 1103.02 1223.46 1068.71 1255.97 1033.8C 1260.31 1029.15 1263.52 1023.07 1262.34 1017.98C 1259.8 1007.05 1269.95 1001.16 1270.57 991.783C 1270.8 988.248 1273.87 988.85 1277.21 989.022C 1292.4 989.803 1306.01 998.006 1321.52 997.653C 1327.34 997.52 1330.14 1001.98 1325.56 1007.99C 1296.18 1046.53 1288.42 1092.88 1278.94 1138.52C 1276.65 1149.57 1276.38 1160.94 1278.16 1172.07C 1291.48 1160.36 1301.19 1147.58 1311.31 1135.3C 1352.63 1085.14 1392.91 1034.11 1436.64 985.974C 1439.55 982.764 1441.92 979.492 1442.4 975.085C 1445.9 943.22 1458.26 914.548 1473.99 887.064C 1475.41 884.507 1476.52 881.791 1477.3 878.973C 1481.19 865.617 1494.53 860.073 1507.8 861.689C 1518.06 862.936 1530.42 867.932 1539.64 855.521C 1546.38 846.443 1556.23 849.821 1566.24 851.769C 1584.19 855.255 1598.62 866.6 1615.85 871.281C 1620.96 872.668 1627.28 873.681 1627.18 881.388C 1627.08 889.216 1627.43 895.913 1617.14 899.553C 1600.72 905.367 1581.91 913.882 1574.18 927.4C 1565.32 942.894 1549.91 952.58 1543.46 969.022C 1542.13 972.428 1539.4 975.122 1540.03 979.487C 1540.87 985.349 1539.54 989.362 1532.04 991.22C 1525.81 992.765 1525.79 1001.4 1523.59 1006.82C 1522.82 1008.73 1530.66 1011.33 1534.9 1012.58C 1556.56 1018.96 1579.17 1021.34 1600.68 1028.52C 1616.73 1033.88 1632.45 1040.59 1644.96 1051.48C 1664.78 1068.75 1668.96 1087.23 1646.77 1112.79C 1633.19 1128.42 1615.62 1139.2 1599.71 1151.97C 1579.12 1168.5 1558.93 1185.71 1537.04 1200.32C 1524.21 1208.88 1511.88 1218.28 1499.15 1226.96C 1489.97 1233.22 1481.46 1239.31 1470.78 1242.87C 1464.92 1244.83 1461.75 1243.58 1457.51 1240C 1444.83 1229.31 1440.1 1216.07 1442.47 1199.79C 1448.11 1161.06 1469.47 1131.23 1496.11 1104.33C 1497.87 1102.55 1499.85 1100.97 1501.46 1099.06C 1506.62 1092.92 1508.39 1087.96 1498.14 1084.76C 1479.85 1079.04 1463.57 1070.28 1454.7 1051.85C 1451.55 1045.32 1448.05 1048.66 1445.56 1052.29C 1424.73 1082.67 1399.52 1109.61 1376.06 1137.78C 1358.04 1159.42 1340.9 1182.3 1318.94 1200.89C 1309.54 1208.85 1301.84 1218.86 1290.46 1224.57C 1289.46 1225.08 1288.18 1225.86 1287.87 1226.8C 1284.89 1235.74 1284.76 1236.03 1276.86 1231.79C 1258.84 1222.1 1245.8 1209.05 1241.14 1187.64C 1235.93 1163.74 1236.8 1139.77 1236.11 1115.76C 1236.02 1112.64 1238.99 1108.61 1234.63 1106.92C 1231.26 1105.62 1228.41 1108.83 1226.1 1111.03C 1215 1121.66 1204.46 1132.9 1193.03 1143.16C 1178.54 1156.15 1163.9 1168.29 1146.1 1177.76C 1110.1 1196.91 1084.08 1169.95 1079.76 1141.12C 1075.78 1114.56 1080.14 1088.47 1081.61 1062.2C 1081.96 1055.93 1082.69 1049.69 1083.04 1043.42C 1083.29 1038.84 1084.43 1032.75 1080.17 1030.65C 1075.82 1028.5 1072.18 1033.52 1068.64 1036.43C 1050.99 1050.99 1038.2 1069.59 1025.22 1088.06C 1010.33 1109.23 995.433 1130.39 980.523 1151.54C 975.794 1158.22 968.193 1164.25 961.383 1163.2C 955.183 1162.25 951.2 1153.87 948.669 1146.18C 945.269 1135.84 950.822 1125.32 946.203 1115.23C 945.169 1112.97 948.425 1109.15 951.136 1108.67C 961.494 1106.85 962.8 1098.13 966.636 1090.74C 973.954 1076.64 982.386 1063.12 990.2 1049.27C 1005.28 1022.53 1014.57 993.312 1025.69 964.915C 1037.56 934.624 1048.04 903.796 1055.69 872.115C 1057.26 865.615 1058.13 858.939 1059.55 852.396C 1060.24 849.224 1060.24 845.432 1057.2 844.79C 1049.11 843.077 1049.02 839.057 1052.08 832.104C 1046.76 834.669 1041.42 837.204 1036.11 839.804C 1022.96 846.245 1008.24 847.487 995.282 856.193C 978.682 867.353 966.513 881.457 957.102 898.054C 944.071 921.033 928.327 942.254 918.051 967.131C 906.578 994.901 896.4 1023.39 882.932 1050.16C 873.465 1068.98 865.473 1088.59 855.806 1107.35C 850.735 1117.18 845.288 1128.41 841.976 1140.05C 836.423 1159.57 824.234 1176.3 813.309 1193.36C 806.232 1204.42 798.552 1215.1 791.37 1226.02C 782.309 1239.79 756.027 1243.26 742.706 1237.07C 737.798 1234.79 732.921 1232.44 728.044 1230.1C 697.923 1215.6 693.544 1185.87 687.133 1158.3C 679.064 1123.59 677.896 1088.01 678.597 1052.39C 678.797 1042.03 677.322 1031.64 676.832 1021.26C 676.645 1017.31 676.281 1013.28 672.523 1011.43C 667.849 1009.14 667.776 1014.81 665.312 1016.45C 648.136 1027.91 633.566 1043.54 622.699 1059.59C 604.182 1086.94 580.115 1110.17 565.099 1140.29C 558.484 1153.55 549.133 1166.31 541.768 1179.39C 532.486 1195.89 525.322 1213.85 516.968 1231.04C 509.911 1245.57 509.077 1262.43 495.351 1274.91C 490.52 1279.31 490.796 1293.15 486.303 1302.37C 483.996 1307.12 481.063 1311.54 477.581 1315.51C 475.082 1317.45 472.6 1317.77 470.136 1315.46ZM 2088.21 326.127C 2099.97 323.294 2099.29 331.04 2098.3 339.344C 2101.96 337.998 2104.93 336.907 2107.9 335.817C 2110.82 335.464 2112.02 333.173 2113.34 331.009C 2118.72 326.364 2123.94 322.343 2132.08 323.223C 2139.04 323.975 2139.15 323.031 2142.16 306.231C 2147.73 317.847 2158.51 313.758 2166.75 316.262C 2185.47 321.947 2199.5 334.312 2214.63 345.155C 2219.98 348.989 2224.99 351.774 2231.52 352.176C 2240.57 352.735 2246.29 358.576 2251.74 365.096C 2255.04 369.03 2254.36 372.773 2252.62 376.628C 2244.52 394.674 2228.26 403.481 2211.08 408.799C 2195.24 413.699 2184.26 424.632 2171.37 433.327C 2156.49 443.366 2147.48 460.242 2130.61 467.957C 2128.47 468.932 2125.2 471.341 2125.36 472.763C 2126.57 483.634 2117.41 487.535 2111.78 493.53C 2102.6 503.303 2093.57 513.163 2084.76 523.247C 2076.7 532.26 2067.75 540.432 2058.04 547.639C 2049.09 554.381 2049.7 565.639 2042.68 572.894C 2040.86 574.776 2042.59 577.394 2045.61 578.415C 2049.97 579.892 2054.15 581.815 2058.93 581.815C 2079.19 581.836 2096.51 589.835 2112.16 601.984C 2134.08 619.009 2159.01 632.724 2174.11 657.363C 2185.24 675.523 2182.21 702.051 2162.05 714.123C 2145.83 723.834 2132.54 738.486 2117.25 749.447C 2099.15 762.426 2081.16 775.806 2062.53 788.182C 2048.09 797.771 2031.96 803.346 2016.56 810.637C 2013.93 811.934 2011.03 812.618 2008.1 812.637C 1987.47 812.082 1971.26 825.561 1952.21 830.192C 1943.51 832.308 1934.31 834.443 1926.54 839.884C 1925.07 840.914 1921.34 841.235 1920.5 840.273C 1908.04 825.962 1895.98 839.83 1884.01 840.939C 1848.27 844.247 1817.56 835.777 1795.19 806.066C 1784.54 791.927 1790.7 776.845 1794.24 762.119C 1794.59 760.646 1796.97 758.619 1796.64 758.171C 1784.85 742.315 1801.47 744.84 1807.61 742.492C 1813.9 740.086 1818.07 735.749 1822.15 731.392C 1841.44 710.819 1867.31 701.878 1892.03 690.773C 1921 677.758 1949.77 664.313 1978.76 651.345C 1987.14 647.597 1985.33 643.388 1980.79 637.966C 1973.43 629.166 1964.81 621.91 1958.57 611.535C 1943.95 587.217 1945.85 560.093 1941.55 534.076C 1936.28 502.199 1947.16 473.75 1961.73 445.988C 1965.95 437.938 1969.26 427.928 1975.5 422.87C 1988.17 412.593 1998.44 398.218 2015.75 394.355C 2021.9 392.983 2027.77 391.042 2032.73 386.907C 2048.32 373.907 2065.5 362.507 2073.28 342.198C 2074.92 337.907 2079.78 334.846 2083.15 331.217C 2084.11 328.928 2085.93 327.102 2088.21 326.127L 2088.21 326.127ZM 410.288 450.2C 420.388 437.58 423.34 421.654 429.821 407.372C 447.334 368.78 463.812 329.732 482.721 291.757C 488.552 280.043 495.035 268.043 495.484 254.435C 495.603 250.853 496.618 250.391 499.437 249.971C 510.509 248.319 516.417 240.845 520.257 231.119C 522.207 226.179 525.046 223.861 530.957 225.776C 535.618 227.287 541.187 227.81 545.229 229.676C 559.86 236.429 575.647 236.484 590.848 238.412C 611.531 241.035 620.676 258.506 613.609 277.422C 601.932 308.679 595.764 341.27 587.616 373.394C 582.567 393.294 575.916 412.672 569.033 432.019C 564.002 446.15 560.655 460.811 549.645 471.981C 548.236 473.411 546.508 475.899 546.857 477.467C 549.266 488.292 542.385 495.92 538.904 505.01C 529.243 530.239 517.934 554.723 507.698 579.663C 502.298 592.826 495.572 605.8 494.786 620.937C 494.267 630.937 485.478 638.408 481.255 647.497C 478.455 653.513 474.026 658.784 474.055 665.897C 474.055 667.063 474.084 668.959 473.455 669.29C 456.295 678.308 462.355 697.958 454.387 711.29C 451.558 716.022 447.287 722.739 447.528 726.697C 448.667 745.271 427.152 755.881 431.728 775.097C 432.228 777.173 430.684 779.985 429.528 782.16C 424.221 792.16 422.204 802.669 420.275 813.916C 418.104 826.575 410.908 838.641 407.553 851.644C 402.504 871.212 399.025 891.105 391.483 910.202C 388.853 916.861 388.783 927.202 390.136 935.926C 390.565 937.98 390.726 940.081 390.615 942.177C 388.767 958.897 361.927 978.459 345.305 980.984C 321.705 984.569 307.505 973.578 294.628 957.075C 289.217 950.142 283.268 943.625 277.952 936.624C 271.303 927.869 263.116 919.914 271.591 906.906C 274.298 902.75 270.843 894.814 270.813 888.606C 270.589 842.855 280.182 798.745 293.43 755.266C 293.375 752.53 294.194 749.848 295.766 747.608C 308.407 710.391 321.5 673.4 336.316 636.9C 347.442 609.489 358.446 581.8 367.891 553.655C 370.267 546.575 376.233 541.104 376.391 533.205C 374.41 527.544 377.403 523.818 381.349 520.462C 387.1 506.555 395.104 493.492 397.164 478.204C 401.071 468.649 407.453 460.257 410.288 450.2ZM 1295.78 679.064C 1308.81 668.524 1314.04 655.018 1321.3 642.964C 1348.04 598.564 1370.28 551.727 1395.35 506.442C 1411.41 477.544 1429.68 449.936 1450.01 423.867C 1464.66 405.015 1478.44 385.488 1492.88 366.467C 1499.96 357.128 1510.6 353.846 1521.43 354.814C 1531.89 355.75 1531.45 364.784 1529.11 372.187C 1524.31 387.339 1514.94 400.287 1507.62 414.238C 1494.49 439.276 1476.57 461.96 1467.4 488.798C 1457.48 517.877 1450.31 548.255 1436.34 575.456C 1428.01 591.68 1425.35 609.956 1414.86 625.047C 1403.65 641.174 1396.23 659.511 1386.69 676.621C 1374.2 699.03 1361.42 720.643 1343.32 738.99C 1328.64 753.865 1311.59 765.567 1291.46 769.69C 1284.14 771.19 1272.77 770.213 1265.31 764.139C 1244.44 747.164 1229.2 727.683 1223.86 699.29C 1215.21 653.26 1213.4 607.182 1213.85 560.719C 1213.88 557.919 1212.82 555.103 1211.62 549.002C 1205.91 561.216 1198.03 568.025 1194.42 579.641C 1188.54 598.581 1190.76 621.432 1171.9 635.254C 1167.75 638.292 1168.85 642.589 1171.57 645.154C 1177.16 650.434 1176.03 656.568 1174.68 662.497C 1167.3 695.011 1156.16 726.025 1136.59 753.44C 1127.5 766.17 1119.54 767.598 1106.29 758.807C 1073.15 736.815 1054.12 707.407 1054.06 666.096C 1054.04 652.934 1050.04 638.296 1050.19 625.925C 1050.4 608.98 1051.48 591.319 1052.15 574.069C 1053.62 536.451 1052.65 498.743 1053.86 461.11C 1054.49 441.432 1053.2 421.81 1053.87 402.242C 1054.16 393.657 1043.84 390.8 1046.62 381.087C 1048.28 375.287 1050.13 373.598 1055.02 371.039C 1077.92 359.074 1091.01 374.869 1105.41 387.606C 1107.25 389.295 1109.31 390.74 1111.52 391.906C 1134.65 403.459 1141.07 424.728 1139.17 447.344C 1136.18 482.692 1144.47 518.55 1133.94 553.433C 1141.91 564.751 1124.54 576.678 1135.38 588.515C 1147.34 576.591 1153.02 560.67 1161.97 546.915C 1167.86 537.84 1173.34 528.454 1179.74 519.755C 1190.8 504.747 1201.51 490.046 1204.12 470.521C 1205.56 459.68 1213.64 455.135 1225.21 451.29C 1241.54 445.863 1256.56 446.129 1272.7 448.384C 1291.7 451.038 1300.44 461.189 1295.72 479.848C 1293.64 488.089 1294.51 495.935 1295.57 503.234C 1299.99 533.534 1298.34 564.094 1296.7 594.103C 1295.87 609.259 1295.55 625.278 1292.84 640.822C 1290.82 652.426 1294.48 665.027 1295.78 679.064ZM 1755.44 558.658C 1736.54 581.851 1718.09 605.436 1698.59 628.114C 1682.86 646.401 1665.86 663.584 1649.44 681.276C 1637.94 693.668 1625.93 705.643 1615.17 718.645C 1606.71 728.857 1595.03 732.992 1583.86 738.136C 1576.73 741.422 1569.95 738.828 1564.22 733.567C 1555.15 725.231 1548.32 715.15 1541.93 704.767C 1537.9 698.215 1540.81 691.722 1543.1 685.392C 1559.05 641.275 1581.55 600.078 1600.29 557.202C 1603.86 549.114 1606.01 540.47 1606.64 531.652C 1607.03 526.224 1607.01 522.062 1598.5 524.192C 1588.19 526.776 1577.1 528.586 1566.63 527.643C 1554.5 526.552 1543.57 521.284 1536.57 509.583C 1521.45 484.271 1516.43 458.446 1528.92 430.459C 1532.3 422.878 1533.79 414.459 1536.18 406.432C 1538.47 398.771 1543.28 391.502 1550.44 389.992C 1561.23 387.717 1566.42 380.558 1571.04 372.478C 1573.27 368.588 1575.45 366.794 1578.29 370.052C 1586.72 379.704 1598.35 377.895 1608.96 379.257C 1625.61 381.396 1640.52 395.666 1641.56 410.908C 1641.92 416.079 1640.56 420.839 1636.5 422.94C 1614.05 434.562 1603.65 457.04 1588.74 475.38C 1585.67 479.166 1578.3 483.31 1581.72 488.763C 1584.39 493.027 1591.82 490.308 1596.8 489.932C 1607.17 489.147 1617.43 485.147 1627.71 485.222C 1642.29 485.327 1657.33 484.605 1671.21 491.01C 1683.39 496.635 1685.43 505.071 1679.32 517.183C 1661.65 552.196 1644.47 587.454 1627.28 622.7C 1624.97 627.415 1619.96 630.761 1619.54 638.359C 1633.46 630.951 1641.84 619.336 1650.65 609.002C 1677.5 577.543 1702.68 544.718 1731.23 514.65C 1745.6 499.522 1759.43 483.914 1775.31 470.364C 1787.15 460.264 1797.87 449.389 1804.73 435.191C 1814.14 415.705 1832.87 414.546 1848.87 418.628C 1877.75 425.994 1886.59 424.854 1868.62 458.887C 1847.56 498.787 1825.13 538.526 1812.66 582.726C 1806.26 605.414 1800.9 628.884 1791.93 650.255C 1785.85 664.768 1786.05 681.376 1775.41 694.725C 1769.1 702.652 1770.46 715.443 1765.51 725.387C 1761.35 733.717 1758.6 734.577 1752.6 726.896C 1732.88 701.648 1732.06 672.896 1736.17 643.166C 1739.85 616.539 1748.45 591.238 1757.66 566.132C 1759.44 563.307 1759.03 560.222 1758.51 557.199C 1757.44 557.575 1756.41 558.064 1755.44 558.658L 1755.44 558.658ZM 604.223 482.8C 642.262 446.932 685.48 417.2 724.072 382.051C 750.986 357.541 778.113 332.978 799.682 303.296C 802.897 298.871 805.832 298.664 810.762 298.078C 829.562 295.843 847.523 303.868 866.562 300.87C 880.426 298.686 888.089 311.433 896.862 319.907C 900.646 323.562 896.138 325.207 893.798 325.644C 858.305 332.244 838.457 362.315 813.565 382.988C 787.531 404.61 762.746 428.934 738.505 453.246C 718.941 472.866 696.627 489.715 676.225 508.546C 665.835 518.134 658.472 531.588 647.054 539.339C 630.654 550.477 619.754 566.161 606.231 579.65C 598.249 587.615 593.649 597.834 585.984 606.05C 581.395 610.97 587.49 618.102 590.572 622.78C 613.988 658.313 630.037 697.65 649.391 735.262C 660.901 757.63 677.517 776.738 689.291 798.739C 702.497 823.423 720.391 845.781 727.548 873.593C 728.912 878.893 738.81 882.434 734.22 887.809C 730.528 892.131 723.646 885.583 718.026 884.537C 693.951 880.06 681.509 861.511 671.275 842.584C 636.9 779.032 603.871 714.755 570.19 650.828C 563.81 638.717 556.99 627.05 544.966 619.022C 536.697 613.5 535.037 602.811 530.682 594.45C 528.668 590.585 528.097 585.289 525.427 581.157C 524.027 578.994 522.304 576.533 525.233 574.643C 541.182 564.353 548.863 547.285 558.933 532.438C 563.333 525.959 570.25 529.132 574.382 524.368C 577.53 520.739 583.269 519.421 584.003 513.563L 583.947 513.652C 590.706 508.974 595.099 502.277 599.426 495.524C 601.29 491.383 600.775 486.347 604.223 482.8ZM 1308.93 962.289C 1291.61 962.544 1288.73 957.426 1292.06 943.594C 1297.25 922.06 1302.41 900.324 1304.67 878.373C 1305.72 868.187 1312.52 863.138 1316.17 855.532C 1323.39 840.48 1330.64 825.282 1339.65 811.292C 1348.82 797.075 1358.77 783.397 1371.67 771.672C 1379.56 764.503 1383.69 752.961 1388.66 742.964C 1390.24 739.797 1390.34 736.815 1394.9 736.99C 1424.76 738.136 1454.87 738.185 1479.22 759.747C 1489.17 768.554 1489.34 774.513 1477.43 780.392C 1451.17 793.352 1436.16 816.892 1419.06 838.783C 1404.76 857.083 1391.71 876.316 1372.16 890.337C 1352.69 904.308 1340.11 924.793 1327.48 944.981C 1322.56 952.839 1315.24 959.425 1308.93 962.289ZM 1959.88 245.172C 1957.79 259.295 1956.09 268.685 1943.25 274.811C 1927.34 282.403 1913.58 294.491 1898.89 304.64C 1897.17 305.831 1895.62 307.49 1893.71 308.167C 1886.2 310.839 1878.47 318.934 1870.68 311.847C 1863.61 305.419 1873.03 299.558 1874.85 293.571C 1879.18 279.231 1885.35 265.453 1890.12 251.23C 1896.73 231.542 1911.84 222.93 1930.6 218.313C 1938.28 216.422 1940.27 223.957 1944.38 226.98C 1951.23 232.016 1959.98 237.267 1959.88 245.172L 1959.88 245.172ZM 410.288 450.2C 408.188 460.6 405.555 470.748 397.161 478.2C 393.466 470.819 385.546 481.882 381.64 473.365C 385.4 471.642 393.415 472.225 390.633 463.846C 390.449 463.291 392.607 461.322 392.715 461.396C 407.137 471.389 403.715 454.244 409.129 450.66C 409.498 450.466 409.887 450.312 410.288 450.2L 410.288 450.2ZM 381.346 520.454C 378.934 524.407 380.372 529.854 376.388 533.197C 365.774 533.71 369.767 525.773 369.069 520.549L 369.09 520.519C 373.08 521.791 377.369 521.77 381.346 520.457L 381.346 520.454ZM 254.833 760.12C 257.139 767.22 268.18 756.713 268.833 766.857C 269.041 770.077 267.548 770.157 265.327 770.424C 258.009 771.315 257.044 765.194 254.833 760.12ZM 115.763 697.12C 116.107 699.685 118.75 703.061 113.848 703.243C 108.996 703.424 109.293 699.395 109.221 696.201C 109.172 694.025 108.315 690.73 112.603 691.539C 115.986 692.175 120.38 692.343 115.763 697.119L 115.763 697.12ZM 2133.94 313.02C 2130.81 312.911 2128.5 311.32 2128.78 309.56C 2129.21 306.86 2132.51 306.607 2134.83 306.108C 2135.23 305.987 2135.66 305.959 2136.07 306.028C 2136.49 306.097 2136.88 306.26 2137.23 306.504C 2137.57 306.749 2137.85 307.068 2138.05 307.439C 2138.25 307.809 2138.36 308.22 2138.38 308.641C 2138.45 312.051 2134.78 311.373 2133.94 313.02ZM 386.862 451.8C 389.362 451.575 389.188 453.516 389.204 454.977C 389.228 457.095 388.569 459.102 386.134 459.498C 384.5 459.764 382.668 459.379 382.693 457.223C 382.725 454.527 384.615 452.97 386.862 451.8ZM 604.223 482.8C 602.123 486.85 607.271 493.632 599.429 495.52C 596.169 489.453 598.959 485.663 604.223 482.8ZM 350.983 551.019C 349.133 557.555 344.863 555.782 339.928 555.296C 342.542 549.32 349.058 555.863 350.983 551.023L 350.983 551.019ZM 2113.34 331.009C 2112.58 334.15 2117.28 337.546 2114.27 339.769C 2111.43 341.863 2110.17 337.076 2107.9 335.817C 2108.25 332.566 2110.02 330.914 2113.34 331.009ZM 2035.42 363.964C 2034.3 358.333 2036.06 355.864 2041.35 354.789C 2041.54 359.613 2038.53 361.233 2035.42 363.964ZM 329.324 588.969C 328.824 589.615 328.106 591.475 326.931 591.831C 326.541 591.908 326.139 591.894 325.755 591.792C 325.372 591.69 325.016 591.501 324.716 591.241C 324.416 590.981 324.18 590.655 324.025 590.289C 323.869 589.924 323.8 589.528 323.821 589.131C 323.77 587.238 325.176 586.398 326.945 586.323C 328.172 586.272 329.341 586.485 329.324 588.969ZM 356.693 523.089C 355.019 523.798 353.515 524.726 353.293 524.482C 352.16 523.379 351.318 522.013 350.842 520.505C 350.493 518.994 352.042 518.505 353.076 519.205C 354.3 520.026 355.162 521.392 356.693 523.089ZM 774.235 514.455C 773.552 515.236 772.773 516.849 771.535 517.378C 769.685 518.167 768.335 516.99 768.856 514.946C 769.23 513.47 769.983 511.434 771.117 510.958C 772.905 510.207 773.711 512.056 774.235 514.455L 774.235 514.455ZM 295.753 747.614C 295.494 750.325 296.253 753.348 293.417 755.272C 289.278 751.219 293.268 749.646 295.753 747.614ZM 369.069 520.552C 365.907 522.173 363.003 522.499 360.632 518.863C 364.023 517.363 366.926 517.047 369.09 520.522L 369.069 520.552ZM 2144.21 998.272C 2151.2 998.899 2150.25 1001.71 2146.16 1005.38C 2145.51 1003.01 2144.86 1000.64 2144.21 998.272ZM 470.136 1315.46C 472.616 1315.47 475.096 1315.49 477.576 1315.51C 477.121 1318.18 475.526 1320.02 472.876 1320C 470.074 1319.98 470.6 1317.26 470.136 1315.46ZM 2358.32 851.272C 2345.15 840.163 2333.49 827.601 2314.11 824.372C 2305.18 822.883 2294.61 822.646 2285.7 817.703C 2276.99 812.869 2266.4 816.397 2263.33 826.115C 2256.23 848.521 2241.05 857.873 2218.36 858.986C 2209.75 859.409 2199.72 864.811 2192.72 860.286C 2180.2 852.202 2167.1 854.048 2154.13 853.83C 2136.15 853.53 2126.21 864.098 2126.82 881.698C 2127.47 900.259 2120.81 916.779 2112.59 932.625C 2102.63 951.825 2090.58 969.986 2081.15 989.425C 2061.53 1029.83 2034.07 1063.86 1999.76 1092.38C 1990.91 1099.72 1981.04 1106.4 1969.7 1110.06C 1959.05 1113.49 1954.89 1110.6 1957.18 1099.59C 1959.34 1089.19 1959.19 1078.73 1960.13 1068.33C 1961.29 1055.55 1967.25 1045.6 1975.6 1036.56C 1987.1 1024.11 2000.29 1013.14 2009.26 998.427C 2011.43 994.871 2013.16 990.766 2016.12 988.027C 2034.65 970.884 2046.87 949.27 2059.61 927.986C 2060.32 926.967 2060.74 925.774 2060.83 924.535C 2060.91 923.295 2060.66 922.056 2060.1 920.948C 2056.92 914.009 2037.22 902.562 2029.38 902.671C 2015.96 902.96 2002.54 902.183 1989.24 900.348C 1971.01 897.658 1959.54 902.221 1954.19 920.291C 1950.05 934.275 1946.1 947.958 1937.86 960.691C 1927.35 976.936 1922.91 996.483 1920.11 1015.31C 1916.79 1037.59 1902.11 1047.53 1884.82 1057.4C 1886.1 1048.86 1887.94 1041.13 1888.33 1033.33C 1889.74 1004.96 1862.54 986.277 1838.01 987.046C 1811.53 987.877 1790.53 1001.77 1770.14 1016.67C 1766.49 1019.33 1763.47 1022.25 1757.6 1021.69C 1765.76 994.913 1772.51 968.8 1781.75 943.594C 1789.63 922.094 1789.6 918.441 1768.41 908.627C 1752.53 901.275 1732.84 906.495 1729.8 926.948C 1726.94 946.221 1722.4 965.292 1717.72 984.232C 1713.04 1003.1 1705.75 1021.42 1702.28 1040.47C 1694.51 1083.1 1682.53 1124.62 1670.27 1166.01C 1666.9 1177.39 1670.76 1191.03 1663.88 1199.46C 1651.62 1214.49 1651.5 1233.42 1643.83 1249.85C 1634.02 1270.9 1623.16 1292.41 1619.21 1316.02C 1618.96 1317.49 1617.09 1318.61 1616.53 1320.11C 1611.43 1333.63 1607.7 1348.27 1597.37 1358.67C 1585.96 1370.17 1604.59 1392.98 1581.14 1398.99C 1580.84 1399.07 1580.89 1400.57 1580.82 1401.4C 1578.94 1423.15 1587.78 1441.31 1601.55 1456.8C 1609.62 1465.88 1634.57 1458.96 1639.78 1447.87C 1650.35 1425.37 1655.29 1401.04 1662.89 1377.59C 1674.67 1341.25 1685.86 1304.72 1696.47 1268.01C 1700.35 1254.56 1707.85 1242.06 1707.51 1227.38C 1707.32 1219.3 1711.86 1221.02 1716.54 1223.73C 1722.68 1227.31 1728.28 1228.38 1735.09 1223.74C 1755.91 1209.57 1777.21 1196.27 1796.21 1179.41C 1828.58 1150.68 1866.02 1128.68 1900.86 1103.2C 1913.83 1093.72 1914.34 1094.41 1921.16 1108.99C 1933.71 1135.84 1963.79 1151 1989.44 1141.11C 2006.95 1134.36 2022.57 1124.39 2037.65 1111.7C 2065.41 1088.31 2083.88 1058.96 2100.59 1028.41C 2115.27 1001.57 2129.38 974.454 2145.54 948.459C 2153.98 934.88 2164.99 922.766 2169.25 906.808C 2171.74 905.108 2172.41 901.808 2174.58 900.095C 2180.85 895.142 2188.42 897.195 2193.89 900.175C 2200.03 903.523 2195.03 908.604 2192.13 912.5L 2150.88 984.833C 2147.45 988.474 2147.68 992.679 2148.45 997.256C 2148.89 999.888 2150.88 1003.46 2146.53 1005.14C 2137.53 1011.24 2137.44 1011.84 2143.02 1020.84C 2143.55 1021.68 2143.3 1023.16 2143.08 1024.28C 2141.66 1031.57 2141.09 1039.21 2138.49 1046.06C 2130.34 1067.48 2120.69 1088.25 2114.16 1110.4C 2109.4 1126.54 2109.12 1142.86 2109.56 1158.9C 2109.94 1172.83 2113.56 1187.38 2118.96 1200.31C 2132.01 1231.54 2148.64 1259.7 2187.42 1264.56C 2214.05 1267.89 2237.22 1262.42 2255.22 1241.87C 2259.87 1236.55 2264.23 1229.98 2264.27 1222.09C 2264.28 1218.19 2262.99 1214.6 2259.61 1212.28C 2255.44 1209.43 2253.59 1213.81 2251.25 1215.56C 2241.22 1223.11 2229.66 1226.65 2217.58 1228.44C 2201.89 1230.76 2196.19 1225.37 2189.16 1211.07C 2179.04 1190.49 2186.47 1169.85 2188.96 1150.38C 2193.92 1111.67 2210.73 1075.81 2226.25 1040.13C 2236.61 1016.31 2248.89 993.288 2261.1 970.324C 2271.47 950.824 2283.08 931.978 2297.86 915.365C 2314.8 896.334 2332.91 878.592 2355.59 866.381C 2363.46 862.155 2363.76 855.868 2358.32 851.272ZM 1848.78 1029.3C 1848.74 1031.39 1848.77 1033.48 1848.77 1035.57C 1844.5 1071.36 1833.65 1103.51 1802.53 1125.83C 1780.79 1141.42 1760.21 1158.63 1737.13 1172.34C 1733.93 1174.24 1730.55 1177.59 1726.85 1175.52C 1721.99 1172.81 1724.86 1167.71 1725.66 1164.11C 1731.29 1138.87 1733.35 1112.03 1745.69 1089.36C 1758.71 1065.45 1780.69 1048.48 1804.06 1034.23C 1812.97 1028.8 1822.04 1023.61 1831.18 1018.56C 1845.91 1010.41 1849.02 1012.37 1848.78 1029.3ZM 993.08 692.049C 982.872 700.813 970.792 708.868 957.952 703.312C 945.252 697.812 945.608 682.812 943.752 670.442C 940.843 651.065 944.765 632.142 947.771 613.268C 951.299 591.112 954.236 568.568 960.971 547.309C 966.684 529.272 973.488 511.429 979.493 493.387C 983.716 480.697 976.282 471.146 963.154 472.787C 945.27 475.016 927.306 476.822 915.654 493.817C 912.925 497.796 908.913 502.185 901.854 498.4C 885.422 489.591 866.505 492.006 850.435 495.344C 832.994 498.967 817.146 502.183 800.267 495.757C 798.795 495.196 796.514 494.905 796.301 497.245C 795.661 504.27 783.279 505.899 788.235 515.796C 789.598 518.518 784.635 519.691 782.854 521.714C 771.443 534.666 754.969 542.83 747.454 559.463C 732.718 592.07 717.716 624.556 703.041 657.19C 692.28 681.1 681.554 705.1 684.25 732.4C 686.709 757.312 711.518 775.886 732.78 767.942C 751.567 760.784 768.145 748.818 780.856 733.242C 802.856 706.517 827.656 682.352 847.767 653.684C 863.608 631.106 878.545 608.191 892.578 584.559C 897.994 575.438 903.353 566.284 908.739 557.145C 911.018 564.602 911.817 572.433 911.091 580.197C 908.891 603.551 906.123 626.803 909.117 650.354C 911.964 672.74 919.796 692.236 937.897 706.725C 960.725 724.996 991.61 716.825 1000.17 687.725C 996.471 689.957 994.574 690.768 993.081 692.049L 993.08 692.049ZM 876.38 553.227C 873.624 553.918 872.333 555.968 871.526 558.465C 849.62 589.393 828.097 620.6 805.686 651.157C 788.459 674.645 769.148 696.488 748.775 717.333C 740.865 725.613 731.237 732.058 720.568 736.216C 725.578 718.094 728.702 701.571 734.817 686.242C 740.165 672.836 748.017 660.206 754.317 647.193C 769.352 616.131 789.717 589.618 814.391 565.993C 814.983 565.399 815.472 564.71 815.837 563.955C 830.937 534.01 855.612 534.521 883.475 542.769L 876.38 553.227Z"/>
<path id="path1_fill" d="M 36.608 42.624C 36.608 44.416 35.1147 45.312 32.128 45.312C 28.8 45.312 26.1973 43.9253 24.32 41.152C 23.5093 39.9573 22.976 38.8053 22.72 37.696C 22.5067 36.5867 22.1653 33.7707 21.696 29.248C 21.44 26.5173 20.5653 24.5973 19.072 23.488C 17.5787 22.336 15.1467 21.7173 11.776 21.632L 11.776 41.792C 11.776 42.6453 12.4587 43.1787 13.824 43.392C 14.208 43.4347 15.1893 43.4773 16.768 43.52C 17.3227 43.52 17.6 43.6907 17.6 44.032C 17.6 44.416 17.2373 44.608 16.512 44.608L 15.744 44.608C 15.36 44.5653 13.504 44.544 10.176 44.544C 9.536 44.544 8.448 44.5653 6.912 44.608C 5.41867 44.608 4.43733 44.608 3.968 44.608L 1.472 44.608C 0.533333 44.608 0.064 44.416 0.064 44.032C 0.064 43.7333 0.682667 43.5627 1.92 43.52C 3.92533 43.4773 5.01333 43.2213 5.184 42.752C 5.35467 42.5387 5.44 41.7067 5.44 40.256L 5.44 4.928C 5.44 3.22133 5.248 2.19733 4.864 1.856C 4.52267 1.51467 3.43467 1.32267 1.6 1.28C 0.533333 1.28 0 1.088 0 0.704C 0 0.277333 0.341333 0.0640001 1.024 0.0640001C 1.152 0.0640001 1.344 0.0853326 1.6 0.127999L 10.112 0.32C 10.9653 0.32 12.16 0.298666 13.696 0.256C 15.4027 0.170666 16.5973 0.127999 17.28 0.127999C 21.248 0.127999 24.384 1.024 26.688 2.816C 29.0347 4.56533 30.208 6.95467 30.208 9.984C 30.208 12.9707 29.0133 15.4453 26.624 17.408C 24.2347 19.328 20.992 20.4587 16.896 20.8C 16.512 20.8427 16.2987 20.9067 16.256 20.992C 16.256 21.1627 16.4693 21.248 16.896 21.248C 21.376 22.016 24.448 23.5947 26.112 25.984C 27.8187 28.3307 28.9493 32.5973 29.504 38.784C 29.8453 42.2827 31.04 44.032 33.088 44.032C 33.728 44.032 34.048 43.904 34.048 43.648C 34.048 43.6053 34.0267 43.5627 33.984 43.52C 33.7707 43.0507 33.664 42.6667 33.664 42.368C 33.664 41.472 34.1333 41.024 35.072 41.024C 36.096 41.024 36.608 41.5573 36.608 42.624ZM 23.36 10.56C 23.36 4.45867 20.7147 1.408 15.424 1.408C 14.016 1.408 13.056 1.6 12.544 1.984C 12.032 2.368 11.776 3.05067 11.776 4.032L 11.776 20.288C 15.872 20.3307 18.816 19.584 20.608 18.048C 22.4427 16.512 23.36 14.016 23.36 10.56Z"/>
<path id="path2_fill" d="M 50.105 44.16C 50.105 44.416 49.913 44.544 49.529 44.544L 48.889 44.544L 47.545 44.48L 45.881 44.48C 45.5397 44.48 45.177 44.4587 44.793 44.416C 44.4517 44.416 44.217 44.416 44.089 44.416C 43.6623 44.416 42.8517 44.4373 41.657 44.48C 40.505 44.5227 39.6303 44.544 39.033 44.544L 38.777 44.544C 38.0517 44.544 37.689 44.416 37.689 44.16C 37.689 43.8187 38.1583 43.6267 39.097 43.584C 40.377 43.4987 41.0383 43.3493 41.081 43.136C 41.1663 42.9227 41.209 42.0053 41.209 40.384L 41.209 19.776C 41.209 18.112 41.1663 17.152 41.081 16.896C 40.9957 16.5973 40.6757 16.4267 40.121 16.384L 38.841 16.32L 38.201 16.32C 37.817 16.32 37.625 16.1707 37.625 15.872C 37.625 15.5733 37.9023 15.424 38.457 15.424C 38.4143 15.424 38.5423 15.424 38.841 15.424C 39.1397 15.4667 39.609 15.488 40.249 15.488L 44.857 15.488C 45.113 15.488 45.497 15.4667 46.009 15.424C 46.521 15.424 46.9903 15.424 47.417 15.424L 49.017 15.424C 49.6997 15.424 50.041 15.5947 50.041 15.936C 50.041 16.192 49.3157 16.3413 47.865 16.384C 47.2677 16.384 46.905 16.4907 46.777 16.704C 46.649 16.8747 46.585 17.4507 46.585 18.432L 46.585 42.56C 46.585 42.9867 46.7343 43.264 47.033 43.392C 47.3743 43.52 48.1423 43.6267 49.337 43.712C 49.849 43.7547 50.105 43.904 50.105 44.16Z"/>
<path id="path3_fill" d="M 82.376 35.712C 82.376 35.9253 81.992 36.0533 81.224 36.096L 79.176 36.16C 78.9627 36.2027 78.792 36.3947 78.664 36.736C 78.5787 37.0773 78.536 37.8453 78.536 39.04L 78.536 41.6C 75.72 43.904 72.4773 45.056 68.808 45.056C 64.1147 45.056 60.3813 43.7333 57.608 41.088C 54.8347 38.4 53.448 34.8373 53.448 30.4C 53.448 25.792 54.792 22.08 57.48 19.264C 60.2107 16.4053 63.7947 14.976 68.232 14.976C 70.536 14.976 73.0107 15.7013 75.656 17.152C 75.8693 17.28 76.0613 17.344 76.232 17.344C 76.5733 17.344 76.808 17.0667 76.936 16.512C 77.192 15.744 77.4907 15.36 77.832 15.36C 78.1733 15.36 78.344 15.5307 78.344 15.872C 78.344 15.7867 78.3013 16.1493 78.216 16.96C 78.088 18.1973 78.024 20.6507 78.024 24.32C 78.024 25.3013 77.768 25.792 77.256 25.792C 76.872 25.792 76.68 25.536 76.68 25.024C 76.5947 22.2507 75.8053 20.0533 74.312 18.432C 72.8613 16.768 70.9627 15.936 68.616 15.936C 65.7573 15.936 63.5173 17.216 61.896 19.776C 60.2747 22.336 59.464 25.8347 59.464 30.272C 59.464 34.5387 60.2747 37.9093 61.896 40.384C 63.56 42.8587 65.8 44.096 68.616 44.096C 71.176 44.096 72.7547 43.2853 73.352 41.664C 73.5653 41.1093 73.672 40.2133 73.672 38.976C 73.672 37.44 73.5653 36.5867 73.352 36.416C 73.1813 36.2027 72.392 36.096 70.984 36.096L 70.536 36.096C 70.3227 36.1387 70.1307 36.16 69.96 36.16C 69.6187 36.16 69.448 36.0107 69.448 35.712C 69.448 35.328 69.96 35.136 70.984 35.136L 72.648 35.136C 73.032 35.136 73.5013 35.136 74.056 35.136C 74.6533 35.1787 74.9733 35.2 75.016 35.2C 78.0027 35.2 79.7093 35.1787 80.136 35.136L 81.288 35.136C 82.0133 35.136 82.376 35.328 82.376 35.712Z"/>
<path id="path4_fill" d="M 112.763 44.096C 112.763 44.3947 112.123 44.544 110.843 44.544C 110.8 44.544 110.587 44.5227 110.203 44.48C 109.819 44.48 109.456 44.48 109.115 44.48L 104.379 44.48C 103.654 44.48 103.184 44.5013 102.971 44.544L 101.947 44.608C 101.008 44.6507 100.539 44.5013 100.539 44.16C 100.539 43.904 100.902 43.7547 101.627 43.712C 103.035 43.6693 103.782 43.4773 103.867 43.136C 103.952 42.9227 103.995 42.2187 103.995 41.024L 103.995 29.312L 91.771 29.312L 91.771 42.496C 91.8563 42.9653 92.027 43.264 92.283 43.392C 92.5817 43.52 93.3283 43.6053 94.523 43.648C 94.9923 43.648 95.227 43.7973 95.227 44.096C 95.227 44.3947 94.8003 44.544 93.947 44.544L 92.923 44.544C 92.3257 44.5013 91.451 44.48 90.299 44.48L 84.027 44.544C 83.387 44.544 83.067 44.3947 83.067 44.096C 83.067 43.7973 83.6857 43.6267 84.923 43.584C 85.8617 43.5413 86.3737 43.2853 86.459 42.816L 86.459 18.88C 86.459 17.6853 86.4377 17.0453 86.395 16.96C 86.3523 16.6187 85.9683 16.448 85.243 16.448C 83.7923 16.4053 83.067 16.192 83.067 15.808C 83.067 15.552 83.3657 15.424 83.963 15.424L 84.475 15.424C 85.371 15.424 86.2243 15.4453 87.035 15.488C 87.8883 15.5307 88.4857 15.552 88.827 15.552C 89.2963 15.552 90.1497 15.5307 91.387 15.488C 92.667 15.4453 93.4137 15.424 93.627 15.424L 94.075 15.424C 94.8003 15.424 95.163 15.5947 95.163 15.936C 95.163 16.32 94.587 16.4907 93.435 16.448C 92.7097 16.448 92.2403 16.5333 92.027 16.704C 91.8563 16.832 91.771 17.2587 91.771 17.984L 91.771 28.096L 103.995 28.096L 103.995 19.264C 103.995 17.8987 103.952 17.1307 103.867 16.96C 103.782 16.448 103.355 16.2347 102.587 16.32L 101.371 16.448C 100.816 16.3627 100.539 16.192 100.539 15.936C 100.539 15.5947 100.987 15.424 101.883 15.424L 103.163 15.424C 103.632 15.424 104.464 15.424 105.659 15.424C 106.811 15.4667 107.643 15.488 108.155 15.488C 109.179 15.488 109.883 15.4667 110.267 15.424L 111.163 15.424C 112.187 15.424 112.699 15.5733 112.699 15.872C 112.699 16.2133 112.4 16.384 111.803 16.384C 111.248 16.384 110.779 16.4053 110.395 16.448C 109.84 16.448 109.52 16.5547 109.435 16.768C 109.35 16.9813 109.307 17.664 109.307 18.816L 109.307 40.96C 109.307 42.4107 109.414 43.2213 109.627 43.392C 109.84 43.52 110.587 43.584 111.867 43.584C 112.464 43.584 112.763 43.7547 112.763 44.096Z"/>
<path id="path5_fill" d="M 140.585 23.424C 140.585 24.0213 140.329 24.32 139.817 24.32C 139.262 24.32 138.964 23.9147 138.921 23.104C 138.793 21.3547 138.43 19.9253 137.833 18.816C 137.022 17.28 135.166 16.512 132.265 16.512C 131.838 16.512 131.177 16.5333 130.281 16.576L 130.281 42.304C 130.281 43.1147 130.9 43.5413 132.137 43.584C 133.374 43.6267 133.993 43.7973 133.993 44.096C 133.993 44.3947 133.63 44.544 132.905 44.544L 132.457 44.544C 132.073 44.544 131.476 44.5227 130.665 44.48C 129.854 44.48 129.278 44.48 128.937 44.48C 128.852 44.48 128.361 44.48 127.465 44.48C 126.569 44.5227 125.417 44.544 124.009 44.544L 122.473 44.544C 121.62 44.544 121.193 44.3947 121.193 44.096C 121.193 43.7973 121.897 43.6267 123.305 43.584C 123.817 43.584 124.158 43.5413 124.329 43.456C 124.67 43.3707 124.862 43.1573 124.905 42.816C 124.948 42.432 124.969 41.344 124.969 39.552L 124.969 16.576C 121.641 16.5333 119.465 16.8747 118.441 17.6C 117.46 18.3253 116.798 20.032 116.457 22.72C 116.329 23.7013 116.052 24.192 115.625 24.192C 115.241 24.192 115.049 23.7013 115.049 22.72C 115.049 21.4827 115.241 19.0507 115.625 15.424L 130.537 15.552C 131.86 15.552 134.548 15.5093 138.601 15.424C 138.942 15.424 139.39 15.3387 139.945 15.168L 140.009 16.512L 140.201 18.816L 140.393 21.504L 140.521 22.656C 140.564 23.04 140.585 23.296 140.585 23.424Z"/>
<path id="path6_fill" d="M 189.761 11.456C 189.761 12.0107 189.505 12.288 188.993 12.288C 188.481 12.288 188.118 11.7333 187.905 10.624C 187.82 9.856 187.734 9.088 187.649 8.32C 187.35 6.784 186.86 5.48267 186.177 4.416C 185.281 3.008 183.809 2.112 181.761 1.728C 180.438 1.472 179.372 1.36533 178.561 1.408C 176.556 1.49333 175.34 1.55733 174.913 1.6L 174.913 40.192C 174.913 41.728 175.318 42.688 176.129 43.072C 176.556 43.2853 177.75 43.4133 179.713 43.456C 180.225 43.4987 180.481 43.6907 180.481 44.032C 180.481 44.416 180.14 44.608 179.457 44.608C 179.116 44.608 178.817 44.5867 178.561 44.544C 176.001 44.4587 174.188 44.416 173.121 44.416C 171.713 44.416 170.39 44.4373 169.153 44.48C 167.916 44.5227 166.337 44.544 164.417 44.544C 163.436 44.544 162.945 44.3733 162.945 44.032C 162.945 43.648 163.862 43.4347 165.697 43.392C 167.02 43.392 167.873 43.1147 168.257 42.56C 168.47 42.2187 168.577 41.344 168.577 39.936L 168.577 1.6C 164.353 1.64267 161.729 1.856 160.705 2.24C 158.017 3.22133 156.438 5.84533 155.969 10.112C 155.841 11.392 155.542 12.032 155.073 12.032C 154.561 12.032 154.305 11.584 154.305 10.688C 154.305 10.2187 154.326 9.74933 154.369 9.28L 154.497 7.808C 154.625 5.84533 154.817 3.264 155.073 0.0640001L 157.953 0.0640001L 171.009 0.256C 172.545 0.298666 174.934 0.277333 178.177 0.191999L 188.801 0C 188.886 2.38933 189.164 5.93067 189.633 10.624C 189.633 10.752 189.654 10.9227 189.697 11.136C 189.74 11.3067 189.761 11.4133 189.761 11.456Z"/>
<path id="path7_fill" d="M 222.013 44.096C 222.013 44.3947 221.373 44.544 220.093 44.544C 220.05 44.544 219.837 44.5227 219.453 44.48C 219.069 44.48 218.706 44.48 218.365 44.48L 213.629 44.48C 212.904 44.48 212.434 44.5013 212.221 44.544L 211.197 44.608C 210.258 44.6507 209.789 44.5013 209.789 44.16C 209.789 43.904 210.152 43.7547 210.877 43.712C 212.285 43.6693 213.032 43.4773 213.117 43.136C 213.202 42.9227 213.245 42.2187 213.245 41.024L 213.245 29.312L 201.021 29.312L 201.021 42.496C 201.106 42.9653 201.277 43.264 201.533 43.392C 201.832 43.52 202.578 43.6053 203.773 43.648C 204.242 43.648 204.477 43.7973 204.477 44.096C 204.477 44.3947 204.05 44.544 203.197 44.544L 202.173 44.544C 201.576 44.5013 200.701 44.48 199.549 44.48L 193.277 44.544C 192.637 44.544 192.317 44.3947 192.317 44.096C 192.317 43.7973 192.936 43.6267 194.173 43.584C 195.112 43.5413 195.624 43.2853 195.709 42.816L 195.709 18.88C 195.709 17.6853 195.688 17.0453 195.645 16.96C 195.602 16.6187 195.218 16.448 194.493 16.448C 193.042 16.4053 192.317 16.192 192.317 15.808C 192.317 15.552 192.616 15.424 193.213 15.424L 193.725 15.424C 194.621 15.424 195.474 15.4453 196.285 15.488C 197.138 15.5307 197.736 15.552 198.077 15.552C 198.546 15.552 199.4 15.5307 200.637 15.488C 201.917 15.4453 202.664 15.424 202.877 15.424L 203.325 15.424C 204.05 15.424 204.413 15.5947 204.413 15.936C 204.413 16.32 203.837 16.4907 202.685 16.448C 201.96 16.448 201.49 16.5333 201.277 16.704C 201.106 16.832 201.021 17.2587 201.021 17.984L 201.021 28.096L 213.245 28.096L 213.245 19.264C 213.245 17.8987 213.202 17.1307 213.117 16.96C 213.032 16.448 212.605 16.2347 211.837 16.32L 210.621 16.448C 210.066 16.3627 209.789 16.192 209.789 15.936C 209.789 15.5947 210.237 15.424 211.133 15.424L 212.413 15.424C 212.882 15.424 213.714 15.424 214.909 15.424C 216.061 15.4667 216.893 15.488 217.405 15.488C 218.429 15.488 219.133 15.4667 219.517 15.424L 220.413 15.424C 221.437 15.424 221.949 15.5733 221.949 15.872C 221.949 16.2133 221.65 16.384 221.053 16.384C 220.498 16.384 220.029 16.4053 219.645 16.448C 219.09 16.448 218.77 16.5547 218.685 16.768C 218.6 16.9813 218.557 17.664 218.557 18.816L 218.557 40.96C 218.557 42.4107 218.664 43.2213 218.877 43.392C 219.09 43.52 219.837 43.584 221.117 43.584C 221.714 43.584 222.013 43.7547 222.013 44.096Z"/>
<path id="path8_fill" d="M 251.755 43.008C 251.755 44.3733 250.56 45.056 248.171 45.056C 245.867 45.056 243.99 44.1813 242.539 42.432C 241.899 41.664 241.472 40.896 241.259 40.128C 241.046 39.36 240.79 37.5467 240.491 34.688C 240.278 32.8533 239.68 31.5733 238.699 30.848C 237.76 30.1227 236.118 29.7173 233.771 29.632L 233.771 42.816C 233.643 43.4133 234.731 43.712 237.035 43.712C 237.504 43.712 237.739 43.8613 237.739 44.16C 237.739 44.4587 237.44 44.608 236.843 44.608C 236.374 44.608 235.926 44.5867 235.499 44.544L 233.259 44.544C 232.32 44.544 231.19 44.5653 229.867 44.608C 228.587 44.608 227.883 44.608 227.755 44.608L 226.539 44.608C 225.344 44.608 224.747 44.4587 224.747 44.16C 224.747 43.8187 224.96 43.648 225.387 43.648C 225.515 43.648 225.728 43.6693 226.027 43.712L 226.283 43.712C 227.734 43.712 228.459 43.4133 228.459 42.816L 228.459 17.536C 228.459 17.0667 228.331 16.768 228.075 16.64C 227.862 16.4693 227.243 16.384 226.219 16.384C 225.238 16.384 224.747 16.2133 224.747 15.872C 224.747 15.5733 225.046 15.424 225.643 15.424L 226.091 15.424C 226.774 15.5093 228.8 15.552 232.171 15.552C 233.579 15.552 234.731 15.5307 235.627 15.488C 236.523 15.4453 237.227 15.424 237.739 15.424C 240.598 15.424 242.88 16.0213 244.587 17.216C 246.336 18.368 247.211 19.904 247.211 21.824C 247.211 23.9147 246.294 25.6213 244.459 26.944C 242.624 28.224 240.043 28.9707 236.715 29.184C 240.299 29.568 242.752 30.5067 244.075 32C 245.44 33.4933 246.315 36.1813 246.699 40.064C 246.955 42.7093 247.744 44.032 249.067 44.032C 249.28 44.032 249.387 43.968 249.387 43.84C 249.387 43.7973 249.323 43.6693 249.195 43.456C 249.11 43.2 249.067 43.008 249.067 42.88C 249.067 42.0693 249.494 41.664 250.347 41.664C 251.286 41.664 251.755 42.112 251.755 43.008ZM 241.643 22.208C 241.643 18.368 239.744 16.448 235.947 16.448C 234.966 16.448 234.347 16.5547 234.091 16.768C 233.878 16.9387 233.771 17.3867 233.771 18.112L 233.771 28.608C 239.019 28.608 241.643 26.4747 241.643 22.208Z"/>
<path id="path9_fill" d="M 281.868 30.208C 281.868 34.3467 280.525 37.8667 277.837 40.768C 275.149 43.6267 271.863 45.056 267.98 45.056C 263.842 45.056 260.343 43.6053 257.484 40.704C 254.668 37.76 253.26 34.176 253.26 29.952C 253.26 25.5573 254.605 21.9733 257.293 19.2C 260.023 16.384 263.501 14.976 267.725 14.976C 271.735 14.976 275.085 16.448 277.773 19.392C 280.503 22.2933 281.868 25.8987 281.868 30.208ZM 275.853 30.4C 275.853 25.4507 274.85 21.5467 272.845 18.688C 271.565 16.8533 269.794 15.936 267.533 15.936C 264.418 15.936 262.157 17.6427 260.749 21.056C 259.767 23.4453 259.277 26.4747 259.277 30.144C 259.277 34.5387 260.045 37.9733 261.581 40.448C 263.117 42.9227 265.25 44.16 267.98 44.16C 273.228 44.16 275.853 39.5733 275.853 30.4Z"/>
<path id="path10_fill" d="M 313.733 15.936C 313.733 16.2347 313.392 16.384 312.709 16.384L 312.389 16.384C 311.962 16.3413 311.536 16.32 311.109 16.32C 310.426 16.32 310.085 16.7467 310.085 17.6L 310.085 29.44C 310.085 33.5787 310 36.2453 309.829 37.44C 309.658 38.6347 309.21 39.8293 308.485 41.024C 306.821 43.712 303.877 45.056 299.653 45.056C 296.154 45.056 293.36 44.2453 291.269 42.624C 289.349 41.1307 288.389 38.2507 288.389 33.984L 288.389 20.48C 288.389 18.176 288.304 16.9173 288.133 16.704C 288.005 16.4907 287.386 16.384 286.277 16.384C 285.381 16.384 284.933 16.2133 284.933 15.872C 284.933 15.5733 285.232 15.424 285.829 15.424L 286.725 15.424C 287.024 15.424 287.386 15.424 287.813 15.424C 288.24 15.4667 288.56 15.488 288.773 15.488L 294.149 15.488C 294.448 15.488 294.81 15.4667 295.237 15.424C 295.621 15.424 295.856 15.424 295.941 15.424C 296.709 15.424 297.093 15.5947 297.093 15.936C 297.093 16.3627 296.304 16.5547 294.725 16.512C 294.256 16.512 293.978 16.5973 293.893 16.768C 293.808 16.896 293.765 17.3653 293.765 18.176L 293.765 33.536C 293.765 37.7173 294.298 40.4267 295.365 41.664C 296.56 43.072 298.33 43.776 300.677 43.776C 303.962 43.776 306.202 42.4107 307.397 39.68C 307.994 38.3147 308.293 36.1173 308.293 33.088C 308.293 33.1307 308.293 32.896 308.293 32.384C 308.25 31.9147 308.229 31.424 308.229 30.912L 308.229 17.6C 308.229 17.0453 308.122 16.704 307.909 16.576C 307.696 16.448 307.098 16.384 306.117 16.384C 305.178 16.384 304.709 16.192 304.709 15.808C 304.709 15.5093 304.965 15.36 305.477 15.36C 305.69 15.36 305.904 15.3813 306.117 15.424L 309.061 15.488C 309.104 15.488 309.338 15.488 309.765 15.488C 310.234 15.4453 310.917 15.424 311.813 15.424L 312.709 15.424C 313.392 15.424 313.733 15.5947 313.733 15.936Z"/>
<path id="path11_fill" d="M 345.314 35.712C 345.314 35.9253 344.929 36.0533 344.161 36.096L 342.114 36.16C 341.9 36.2027 341.73 36.3947 341.602 36.736C 341.516 37.0773 341.474 37.8453 341.474 39.04L 341.474 41.6C 338.658 43.904 335.415 45.056 331.746 45.056C 327.052 45.056 323.319 43.7333 320.546 41.088C 317.772 38.4 316.385 34.8373 316.385 30.4C 316.385 25.792 317.73 22.08 320.418 19.264C 323.148 16.4053 326.732 14.976 331.17 14.976C 333.474 14.976 335.948 15.7013 338.594 17.152C 338.807 17.28 338.999 17.344 339.17 17.344C 339.511 17.344 339.746 17.0667 339.874 16.512C 340.13 15.744 340.428 15.36 340.77 15.36C 341.111 15.36 341.282 15.5307 341.282 15.872C 341.282 15.7867 341.239 16.1493 341.154 16.96C 341.026 18.1973 340.962 20.6507 340.962 24.32C 340.962 25.3013 340.706 25.792 340.194 25.792C 339.81 25.792 339.618 25.536 339.618 25.024C 339.532 22.2507 338.743 20.0533 337.25 18.432C 335.799 16.768 333.9 15.936 331.553 15.936C 328.695 15.936 326.455 17.216 324.833 19.776C 323.212 22.336 322.402 25.8347 322.402 30.272C 322.402 34.5387 323.212 37.9093 324.833 40.384C 326.497 42.8587 328.737 44.096 331.553 44.096C 334.113 44.096 335.692 43.2853 336.29 41.664C 336.503 41.1093 336.609 40.2133 336.609 38.976C 336.609 37.44 336.503 36.5867 336.29 36.416C 336.119 36.2027 335.33 36.096 333.922 36.096L 333.474 36.096C 333.26 36.1387 333.068 36.16 332.898 36.16C 332.556 36.16 332.385 36.0107 332.385 35.712C 332.385 35.328 332.898 35.136 333.922 35.136L 335.586 35.136C 335.97 35.136 336.439 35.136 336.993 35.136C 337.591 35.1787 337.911 35.2 337.954 35.2C 340.94 35.2 342.647 35.1787 343.074 35.136L 344.226 35.136C 344.951 35.136 345.314 35.328 345.314 35.712Z"/>
<path id="path12_fill" d="M 375.701 44.096C 375.701 44.3947 375.061 44.544 373.781 44.544C 373.738 44.544 373.525 44.5227 373.141 44.48C 372.757 44.48 372.394 44.48 372.053 44.48L 367.316 44.48C 366.591 44.48 366.122 44.5013 365.909 44.544L 364.885 44.608C 363.946 44.6507 363.477 44.5013 363.477 44.16C 363.477 43.904 363.839 43.7547 364.565 43.712C 365.973 43.6693 366.719 43.4773 366.805 43.136C 366.89 42.9227 366.933 42.2187 366.933 41.024L 366.933 29.312L 354.708 29.312L 354.708 42.496C 354.794 42.9653 354.965 43.264 355.221 43.392C 355.519 43.52 356.266 43.6053 357.461 43.648C 357.93 43.648 358.165 43.7973 358.165 44.096C 358.165 44.3947 357.738 44.544 356.885 44.544L 355.861 44.544C 355.263 44.5013 354.389 44.48 353.237 44.48L 346.965 44.544C 346.325 44.544 346.005 44.3947 346.005 44.096C 346.005 43.7973 346.623 43.6267 347.861 43.584C 348.799 43.5413 349.311 43.2853 349.397 42.816L 349.397 18.88C 349.397 17.6853 349.375 17.0453 349.333 16.96C 349.29 16.6187 348.906 16.448 348.181 16.448C 346.73 16.4053 346.005 16.192 346.005 15.808C 346.005 15.552 346.303 15.424 346.901 15.424L 347.413 15.424C 348.309 15.424 349.162 15.4453 349.973 15.488C 350.826 15.5307 351.423 15.552 351.764 15.552C 352.234 15.552 353.087 15.5307 354.325 15.488C 355.605 15.4453 356.351 15.424 356.565 15.424L 357.013 15.424C 357.738 15.424 358.101 15.5947 358.101 15.936C 358.101 16.32 357.524 16.4907 356.372 16.448C 355.647 16.448 355.178 16.5333 354.965 16.704C 354.794 16.832 354.708 17.2587 354.708 17.984L 354.708 28.096L 366.933 28.096L 366.933 19.264C 366.933 17.8987 366.89 17.1307 366.805 16.96C 366.719 16.448 366.293 16.2347 365.525 16.32L 364.309 16.448C 363.754 16.3627 363.477 16.192 363.477 15.936C 363.477 15.5947 363.924 15.424 364.82 15.424L 366.101 15.424C 366.57 15.424 367.402 15.424 368.596 15.424C 369.748 15.4667 370.58 15.488 371.092 15.488C 372.116 15.488 372.82 15.4667 373.204 15.424L 374.101 15.424C 375.125 15.424 375.637 15.5733 375.637 15.872C 375.637 16.2133 375.338 16.384 374.741 16.384C 374.186 16.384 373.717 16.4053 373.333 16.448C 372.778 16.448 372.458 16.5547 372.372 16.768C 372.287 16.9813 372.245 17.664 372.245 18.816L 372.245 40.96C 372.245 42.4107 372.351 43.2213 372.565 43.392C 372.778 43.52 373.525 43.584 374.805 43.584C 375.402 43.584 375.701 43.7547 375.701 44.096Z"/>
</defs>
</svg>
